<svg width="310" height="310" viewBox="0 0 310 310" fill="none" xmlns="http://www.w3.org/2000/svg">
<g clip-path="url(#clip0_40_64)">
<path d="M222.275 185.159L157.079 250.354C156.66 250.767 156.141 251.062 155.572 251.211C155.003 251.36 154.405 251.358 153.838 251.203C153.27 251.049 152.753 250.748 152.338 250.332C151.923 249.915 151.625 249.397 151.473 248.829L127.633 159.816L103.77 70.7803C103.611 70.2114 103.606 69.6104 103.756 69.0389C103.906 68.4675 104.205 67.9462 104.622 67.5285C105.04 67.1107 105.561 66.8116 106.133 66.6619C106.704 66.5121 107.305 66.517 107.874 66.6761L196.91 90.5386L285.923 114.379C286.491 114.531 287.009 114.829 287.426 115.244C287.842 115.659 288.143 116.176 288.297 116.744C288.452 117.311 288.454 117.909 288.305 118.478C288.156 119.047 287.861 119.566 287.448 119.985L222.275 185.159Z" fill="#B9D835"/>
<path d="M205.096 238.983L139.923 304.157C139.505 304.597 138.976 304.915 138.391 305.076C137.807 305.238 137.189 305.237 136.605 305.073C136.021 304.909 135.493 304.589 135.078 304.147C134.662 303.704 134.376 303.157 134.248 302.564L110.476 213.618L86.6133 124.583C86.4646 124.015 86.4671 123.418 86.6206 122.852C86.7741 122.285 87.0732 121.769 87.4883 121.354C87.9033 120.938 88.4198 120.639 88.9863 120.486C89.5528 120.332 90.1497 120.33 90.7175 120.479L179.753 144.341L268.699 168.114C269.263 168.272 269.777 168.574 270.188 168.992C270.6 169.409 270.895 169.927 271.044 170.493C271.194 171.06 271.193 171.656 271.041 172.222C270.889 172.788 270.592 173.305 270.179 173.721L205.096 238.983Z" stroke="#303030" stroke-width="3.48326" stroke-miterlimit="10"/>
</g>
<defs>
<clipPath id="clip0_40_64">
<rect width="243.489" height="194.519" fill="white" transform="translate(0 172.173) rotate(-45)"/>
</clipPath>
</defs>
</svg>
