<svg width="34" height="34" viewBox="0 0 34 34" fill="none" xmlns="http://www.w3.org/2000/svg">
<g clip-path="url(#clip0_40_149)">
<path d="M19.4664 29.4219L19.4481 22.2629C19.4476 21.8979 19.5192 21.5364 19.6586 21.1991C19.798 20.8618 20.0027 20.5553 20.2608 20.2972C20.5188 20.0391 20.8253 19.8345 21.1626 19.6951C21.4999 19.5556 21.8614 19.4841 22.2264 19.4846L29.4037 19.4846C29.7697 19.4859 30.1324 19.4148 30.4708 19.2753C30.8092 19.1358 31.1167 18.9308 31.3755 18.672C31.6343 18.4132 31.8394 18.1057 31.9788 17.7673C32.1183 17.4289 32.1894 17.0662 32.1881 16.7002C32.1894 16.3342 32.1183 15.9715 31.9788 15.6331C31.8394 15.2947 31.6343 14.9872 31.3755 14.7284C31.1167 14.4696 30.8092 14.2646 30.4708 14.1251C30.1324 13.9856 29.7697 13.9145 29.4037 13.9158L22.263 13.9158C21.898 13.9163 21.5365 13.8448 21.1992 13.7053C20.8619 13.5659 20.5554 13.3613 20.2973 13.1032C20.0392 12.8451 19.8346 12.5386 19.6952 12.2013C19.5557 11.864 19.4842 11.5025 19.4847 11.1375L19.4359 3.9724C19.4306 3.24368 19.1387 2.54633 18.6234 2.03103C18.1081 1.51573 17.4107 1.22385 16.682 1.21847C15.9533 1.22385 15.2559 1.51573 14.7406 2.03103C14.2253 2.54633 13.9335 3.24368 13.9281 3.9724L13.9281 11.1497C13.9286 11.5147 13.8571 11.8762 13.7176 12.2135C13.5782 12.5508 13.3735 12.8573 13.1154 13.1154C12.8574 13.3734 12.5509 13.5781 12.2136 13.7175C11.8763 13.857 11.5148 13.9285 11.1498 13.928L3.97249 13.928C3.60648 13.9267 3.24382 13.9978 2.90541 14.1373C2.567 14.2767 2.25953 14.4818 2.00072 14.7406C1.7419 14.9994 1.53685 15.3069 1.39739 15.6453C1.25792 15.9837 1.18679 16.3464 1.1881 16.7124C1.18679 17.0784 1.25792 17.4411 1.39738 17.7795C1.53685 18.1179 1.7419 18.4253 2.00071 18.6842C2.25953 18.943 2.567 19.148 2.90541 19.2875C3.24382 19.427 3.60648 19.4981 3.97249 19.4968L11.1498 19.4968C11.5148 19.4963 11.8763 19.5678 12.2136 19.7072C12.5509 19.8467 12.8574 20.0513 13.1154 20.3094C13.3735 20.5675 13.5782 20.874 13.7176 21.2113C13.8571 21.5486 13.9286 21.9101 13.9281 22.2751L13.9281 29.4524C13.9268 29.8184 13.9979 30.181 14.1374 30.5194C14.2768 30.8579 14.4819 31.1653 14.7407 31.4241C14.9995 31.683 15.307 31.888 15.6454 32.0275C15.9838 32.1669 16.3465 32.2381 16.7125 32.2368C17.0785 32.2341 17.4404 32.159 17.7773 32.0158C18.1142 31.8727 18.4194 31.6643 18.6754 31.4026C18.9314 31.141 19.1331 30.8312 19.2688 30.4913C19.4046 30.1514 19.4717 29.7879 19.4664 29.4219Z" fill="#B4D667"/>
</g>
<defs>
<clipPath id="clip0_40_149">
<rect width="23.5919" height="23.5919" fill="white" transform="translate(16.682) rotate(45)"/>
</clipPath>
</defs>
</svg>
