<svg width="277" height="277" viewBox="0 0 277 277" fill="none" xmlns="http://www.w3.org/2000/svg">
<g clip-path="url(#clip0_25_142)">
<path d="M111.276 198.569L53.0332 140.327C52.6646 139.952 52.4006 139.488 52.2675 138.98C52.1344 138.472 52.1369 137.937 52.2748 137.431C52.4126 136.924 52.6811 136.462 53.0532 136.091C53.4254 135.72 53.8882 135.454 54.3956 135.318L133.915 114.02L213.455 92.7029C213.964 92.5607 214.5 92.5563 215.011 92.6901C215.521 92.8239 215.987 93.0911 216.36 93.4643C216.733 93.8375 217.001 94.3032 217.134 94.8137C217.268 95.3242 217.264 95.8611 217.122 96.3693L195.804 175.909L174.507 255.429C174.371 255.936 174.104 256.399 173.733 256.771C173.363 257.144 172.901 257.412 172.394 257.55C171.887 257.688 171.353 257.69 170.845 257.557C170.337 257.424 169.872 257.16 169.498 256.791L111.276 198.569Z" fill="#B9D835"/>
<path d="M63.1913 183.222L4.96891 125C4.57552 124.627 4.29137 124.154 4.14713 123.632C4.00289 123.109 4.00404 122.558 4.15044 122.036C4.29685 121.514 4.58296 121.042 4.97789 120.671C5.37282 120.3 5.86158 120.044 6.3914 119.931L85.8511 98.6934L165.391 77.3759C165.898 77.243 166.431 77.2453 166.937 77.3824C167.444 77.5196 167.905 77.7868 168.276 78.1576C168.647 78.5283 168.914 78.9897 169.051 79.4958C169.188 80.0019 169.19 80.5351 169.057 81.0424L147.74 160.582L126.503 240.042C126.362 240.546 126.091 241.005 125.718 241.372C125.345 241.74 124.883 242.003 124.377 242.137C123.871 242.271 123.338 242.27 122.832 242.134C122.327 241.999 121.865 241.733 121.494 241.364L63.1913 183.222Z" stroke="#303030" stroke-width="3.48326" stroke-miterlimit="10"/>
</g>
<defs>
<clipPath id="clip0_25_142">
<rect width="217.521" height="173.773" fill="white" transform="translate(122.876) rotate(45)"/>
</clipPath>
</defs>
</svg>
