<svg width="45" height="36" viewBox="0 0 45 36" fill="none" xmlns="http://www.w3.org/2000/svg">
<path d="M36.7243 35.0713C36.2589 35.3687 35.6406 35.2326 35.3431 34.7672L30.4963 27.1838C30.1989 26.7184 30.3351 26.1 30.8004 25.8026C31.2658 25.5052 31.8841 25.6413 32.1816 26.1067L36.4898 32.8475L43.2307 28.5393C43.696 28.2418 44.3144 28.378 44.6118 28.8433C44.9092 29.3087 44.7731 29.9271 44.3077 30.2245L36.7243 35.0713ZM0.562995 5.06565C11.3535 -1.09308 21.931 -0.14286 29.1297 5.684C36.3097 11.4958 39.9067 21.9787 37.1624 34.4437L35.2091 34.0137C37.8245 22.1342 34.3492 12.4819 27.8714 7.23856C21.4122 2.01034 11.7463 0.985547 1.55439 6.80264L0.562995 5.06565Z" fill="#95B900"/>
</svg>
