<svg width="16" height="13" viewBox="0 0 16 13" fill="none" xmlns="http://www.w3.org/2000/svg">
<path d="M4.20552 2.52944C4.1244 2.93911 3.92378 3.31571 3.62887 3.61195C3.33396 3.90818 2.95791 4.11083 2.54796 4.19445C2.13801 4.27806 1.71245 4.2389 1.32473 4.0819C0.937005 3.92489 0.60442 3.65703 0.368751 3.31198C0.133082 2.96693 0.00483975 2.56006 0.000134296 2.1425C-0.00457116 1.72494 0.11447 1.3153 0.342304 0.965044C0.570137 0.614788 0.896602 0.339537 1.28069 0.173868C1.66477 0.00819837 2.08935 -0.0405003 2.50108 0.0338893C2.77759 0.085232 3.0412 0.190643 3.27674 0.344055C3.51227 0.497467 3.71508 0.695852 3.87349 0.927792C4.03191 1.15973 4.1428 1.42065 4.19978 1.69553C4.25676 1.9704 4.25872 2.25381 4.20552 2.52944Z" fill="#AED1EF" fill-opacity="0.5"/>
</svg>
