<svg width="204" height="164" viewBox="0 0 204 164" fill="none" xmlns="http://www.w3.org/2000/svg">
<g clip-path="url(#clip0_50_404)">
<path d="M79.7375 139.686L156.63 139.686C157.12 139.683 157.601 139.55 158.024 139.303C158.447 139.055 158.798 138.701 159.042 138.275C159.286 137.85 159.413 137.368 159.412 136.877C159.411 136.387 159.282 135.905 159.037 135.481L120.604 68.9308L82.1709 2.35443C81.9293 1.92511 81.5778 1.5678 81.1525 1.31915C80.7271 1.07049 80.2434 0.939446 79.7507 0.939446C79.258 0.939446 78.7742 1.07049 78.3489 1.31915C77.9236 1.5678 77.5721 1.92511 77.3305 2.35443L38.8976 68.9308L0.464771 135.481C0.219562 135.905 0.0900303 136.387 0.0890842 136.877C0.0881534 137.368 0.215854 137.85 0.459445 138.275C0.703021 138.701 1.05397 139.055 1.47727 139.303C1.90056 139.55 2.3814 139.683 2.87177 139.686L79.7375 139.686Z" fill="#B9D835"/>
<path d="M121.609 161.296L198.474 161.296C198.98 161.31 199.48 161.185 199.92 160.936C200.36 160.686 200.723 160.321 200.971 159.88C201.219 159.439 201.341 158.939 201.326 158.433C201.31 157.928 201.156 157.436 200.881 157.011L162.449 90.5408L124.016 23.9645C123.769 23.5419 123.415 23.1914 122.991 22.9479C122.566 22.7043 122.085 22.5762 121.596 22.5762C121.106 22.5762 120.625 22.7043 120.201 22.9479C119.776 23.1914 119.422 23.5419 119.175 23.9645L80.7425 90.5408L42.3097 157.011C42.0699 157.437 41.9456 157.918 41.9492 158.407C41.9527 158.896 42.084 159.375 42.3299 159.798C42.5759 160.22 42.9279 160.571 43.3512 160.815C43.7745 161.059 44.2544 161.189 44.7431 161.191L121.609 161.296Z" stroke="#303030" stroke-width="2.90492" stroke-miterlimit="10"/>
</g>
<defs>
<clipPath id="clip0_50_404">
<rect width="203.062" height="162.222" fill="white" transform="matrix(-1 -8.74228e-08 -8.74228e-08 1 203.156 0.953125)"/>
</clipPath>
</defs>
</svg>
