<svg width="63" height="63" viewBox="0 0 63 63" fill="none" xmlns="http://www.w3.org/2000/svg">
<g clip-path="url(#clip0_50_427)">
<path d="M30.2334 56.8177L33.8118 43.3253C33.995 42.6376 34.3122 41.9929 34.745 41.428C35.1779 40.8631 35.7179 40.3891 36.3343 40.0333C36.9506 39.6774 37.6311 39.4467 38.3367 39.3543C39.0424 39.2619 39.7593 39.3096 40.4465 39.4948L53.964 43.1168C54.6527 43.304 55.3716 43.353 56.0794 43.2611C56.7871 43.1692 57.4697 42.9382 58.0877 42.5814C58.7058 42.2245 59.2471 41.7489 59.6806 41.182C60.114 40.615 60.431 39.9679 60.6133 39.2778C60.8004 38.5892 60.8495 37.8702 60.7576 37.1625C60.6657 36.4548 60.4347 35.7722 60.0779 35.1541C59.721 34.5361 59.2454 33.9947 58.6784 33.5613C58.1115 33.1278 57.4643 32.8109 56.7743 32.6286L43.3256 29.025C42.6379 28.8418 41.9932 28.5247 41.4283 28.0918C40.8634 27.659 40.3894 27.1189 40.0336 26.5026C39.6778 25.8862 39.447 25.2058 39.3546 24.5001C39.2622 23.7945 39.3099 23.0775 39.4951 22.3904L43.0191 8.87115C43.3768 7.49597 43.179 6.0353 42.4685 4.80475C41.758 3.57419 40.592 2.67257 39.2222 2.29467C37.847 1.93706 36.3864 2.13486 35.1558 2.84532C33.9253 3.55578 33.0236 4.72186 32.6457 6.09161L29.0237 19.6092C28.8405 20.2968 28.5233 20.9416 28.0905 21.5065C27.6576 22.0714 27.1176 22.5454 26.5012 22.9012C25.8849 23.257 25.2044 23.4878 24.4988 23.5802C23.7932 23.6726 23.0762 23.6248 22.389 23.4397L8.87147 19.8177C8.18278 19.6305 7.46386 19.5815 6.75612 19.6733C6.04839 19.7652 5.36583 19.9963 4.74777 20.3531C4.12971 20.7099 3.58836 21.1855 3.15491 21.7525C2.72147 22.3195 2.40449 22.9666 2.22224 23.6566C2.03507 24.3453 1.98601 25.0642 2.0779 25.772C2.16979 26.4797 2.40081 27.1623 2.75765 27.7803C3.11449 28.3984 3.59009 28.9397 4.15706 29.3732C4.72403 29.8066 5.37116 30.1236 6.06118 30.3058L19.5787 33.9279C20.2664 34.1111 20.9112 34.4283 21.4761 34.8611C22.041 35.294 22.5149 35.834 22.8708 36.4503C23.2266 37.0667 23.4573 37.7471 23.5497 38.4528C23.6421 39.1584 23.5944 39.8754 23.4093 40.5625L19.7873 54.0801C19.6001 54.7688 19.551 55.4877 19.6429 56.1955C19.7348 56.9032 19.9658 57.5858 20.3227 58.2038C20.6795 58.8219 21.1551 59.3632 21.7221 59.7967C22.289 60.2301 22.9362 60.5471 23.6262 60.7293C24.3169 60.909 25.0364 60.9502 25.7431 60.8506C26.4499 60.751 27.1299 60.5125 27.7441 60.1489C28.3583 59.7853 28.8944 59.3038 29.3216 58.732C29.7489 58.1603 30.0588 57.5097 30.2334 56.8177Z" fill="#B4D667"/>
</g>
<defs>
<clipPath id="clip0_50_427">
<rect width="46" height="46" fill="white" transform="translate(39.8372) rotate(60)"/>
</clipPath>
</defs>
</svg>
