<svg width="261" height="186" viewBox="0 0 261 186" fill="none" xmlns="http://www.w3.org/2000/svg">
<g clip-path="url(#clip0_25_84)">
<path d="M261 35.3127C245.786 47.4919 231.297 45.8876 220.723 44.6973C211.218 43.645 206.768 43.3862 200.748 48.1475C194.728 52.9087 194.004 57.3767 192.969 66.8648C191.796 77.4569 190.226 91.9477 174.995 104.144C159.764 116.341 145.291 114.788 134.717 113.598C125.23 112.545 120.78 112.287 114.743 117.048C108.705 121.809 108.015 126.346 106.946 135.834C105.79 146.409 104.203 160.9 88.9894 173.096C73.7755 185.293 59.286 183.671 48.7122 182.498C39.225 181.428 34.7747 181.17 28.7374 185.948L11.4881 164.402C26.7193 152.274 41.2087 153.879 51.7481 155.069C61.2352 156.121 65.6856 156.38 71.7228 151.619C77.7601 146.858 78.5018 142.321 79.5368 132.833C80.6925 122.24 82.2794 107.75 97.4934 95.5704C112.707 83.3912 127.197 84.9956 137.771 86.2549C147.275 87.3072 151.725 87.5832 157.745 82.8047C163.765 78.0262 164.49 73.4374 165.594 63.9321C166.75 53.3573 168.336 38.8664 183.55 26.67C198.764 14.4736 213.185 16.0952 223.776 17.251C233.263 18.3205 237.713 18.5793 243.751 13.8008L261 35.3127Z" fill="#B9D835"/>
<path d="M251.927 23.9616C236.696 36.2271 222.206 34.502 211.632 33.3634C202.145 32.3111 197.695 32.0523 191.658 36.8136C185.62 41.5749 184.913 46.0429 183.878 55.5309C182.722 66.1057 181.136 80.6138 165.922 92.793C150.708 104.972 136.27 103.506 125.644 102.264C116.14 101.211 111.69 100.935 105.67 105.714C99.6495 110.492 98.9251 114.943 97.8901 124.449C96.7344 135.023 95.1475 149.514 79.9335 161.711C64.7196 173.907 50.2301 172.337 39.6735 171.147C30.1691 170.095 25.7188 169.836 19.6988 174.597L2.44941 153.051C17.6633 140.854 32.1356 142.476 42.7267 143.649C52.2138 144.718 56.6641 144.977 62.6842 140.199C68.7042 135.42 69.4287 130.969 70.4636 121.481C71.6366 110.889 73.2235 96.3985 88.4375 84.2193C103.651 72.0401 118.141 73.6444 128.715 74.8175C138.202 75.8698 142.652 76.1286 148.672 71.3673C154.692 66.606 155.399 62.1035 156.452 52.5982C157.607 42.0234 159.194 27.5326 174.408 15.3361C189.622 3.13968 204.112 4.76127 214.685 5.93434C224.19 6.98665 228.64 7.26267 234.66 2.48415L251.927 23.9616Z" stroke="#303030" stroke-width="2" stroke-miterlimit="10"/>
</g>
<defs>
<clipPath id="clip0_25_84">
<rect width="261" height="186" fill="white"/>
</clipPath>
</defs>
</svg>
