<svg width="46" height="46" viewBox="0 0 46 46" fill="none" xmlns="http://www.w3.org/2000/svg">
<g clip-path="url(#clip0_25_94)">
<path d="M44.404 36.7261L34.5084 26.8809C34.0045 26.3784 33.6047 25.7814 33.3319 25.1241C33.0591 24.4667 32.9187 23.7621 32.9187 23.0504C32.9187 22.3387 33.0591 21.6341 33.3319 20.9767C33.6047 20.3194 34.0045 19.7224 34.5084 19.2199L44.404 9.32432C44.9104 8.82148 45.3124 8.2234 45.5866 7.56454C45.8609 6.90568 46.0021 6.19906 46.0021 5.48539C46.0021 4.77171 45.8609 4.06509 45.5866 3.40623C45.3124 2.74737 44.9104 2.14929 44.404 1.64645C43.9011 1.14001 43.3031 0.738067 42.6442 0.463779C41.9853 0.18949 41.2787 0.0482788 40.565 0.0482788C39.8514 0.0482788 39.1447 0.18949 38.4859 0.463779C37.827 0.738067 37.2289 1.14001 36.7261 1.64645L26.881 11.4916C26.3784 11.9955 25.7814 12.3953 25.1241 12.6681C24.4668 12.9409 23.7621 13.0813 23.0504 13.0813C22.3388 13.0813 21.6341 12.9409 20.9768 12.6681C20.3195 12.3953 19.7224 11.9955 19.2199 11.4916L9.27395 1.68005C8.26181 0.682763 6.89794 0.123721 5.47702 0.123721C4.0561 0.123721 2.69222 0.682763 1.68008 1.68005C0.682792 2.69219 0.123751 4.05607 0.123751 5.47699C0.123751 6.89791 0.682792 8.26178 1.68008 9.27392L11.5756 19.1695C12.0795 19.672 12.4794 20.269 12.7521 20.9263C13.0249 21.5836 13.1654 22.2883 13.1654 23C13.1654 23.7117 13.0249 24.4163 12.7521 25.0737C12.4794 25.731 12.0795 26.328 11.5756 26.8305L1.68008 36.7261C1.17364 37.2289 0.771697 37.827 0.497409 38.4859C0.223121 39.1447 0.0819092 39.8513 0.0819092 40.565C0.0819092 41.2787 0.223121 41.9853 0.497409 42.6442C0.771697 43.303 1.17364 43.9011 1.68008 44.4039C2.18292 44.9104 2.781 45.3123 3.43986 45.5866C4.09872 45.8609 4.80534 46.0021 5.51902 46.0021C6.23269 46.0021 6.93931 45.8609 7.59817 45.5866C8.25704 45.3123 8.85511 44.9104 9.35795 44.4039L19.2535 34.5084C19.756 34.0045 20.3531 33.6047 21.0104 33.3319C21.6677 33.0591 22.3724 32.9187 23.084 32.9187C23.7957 32.9187 24.5004 33.0591 25.1577 33.3319C25.815 33.6047 26.412 34.0045 26.9146 34.5084L36.8101 44.4039C37.3129 44.9104 37.911 45.3123 38.5699 45.5866C39.2287 45.8609 39.9354 46.0021 40.649 46.0021C41.3627 46.0021 42.0693 45.8609 42.7282 45.5866C43.3871 45.3123 43.9851 44.9104 44.488 44.4039C44.989 43.8956 45.3844 43.2931 45.6515 42.6313C45.9186 41.9694 46.0521 41.2612 46.0443 40.5475C46.0365 39.8338 45.8875 39.1287 45.606 38.4729C45.3245 37.817 44.916 37.2234 44.404 36.7261Z" fill="#B4D667"/>
</g>
<defs>
<clipPath id="clip0_25_94">
<rect width="46" height="46" fill="white"/>
</clipPath>
</defs>
</svg>
