<svg width="237" height="223" viewBox="0 0 237 223" fill="none" xmlns="http://www.w3.org/2000/svg">
<g clip-path="url(#clip0_25_7)">
<path d="M162.31 147.315L100.986 182.72C100.593 182.943 100.149 183.059 99.6975 183.056C99.2459 183.054 98.8029 182.933 98.4126 182.706C98.0224 182.478 97.6986 182.153 97.4735 181.761C97.2485 181.37 97.1301 180.926 97.1301 180.474L97.1382 109.703L97.1342 38.9102C97.1293 38.4565 97.2451 38.0097 97.4698 37.6156C97.6945 37.2214 98.02 36.8941 98.4129 36.6673C98.8058 36.4404 99.252 36.3222 99.7056 36.3247C100.159 36.3271 100.604 36.4503 100.995 36.6814L162.301 72.0812L223.595 107.46C223.986 107.686 224.311 108.01 224.538 108.401C224.764 108.791 224.884 109.235 224.886 109.686C224.888 110.138 224.771 110.582 224.547 110.974C224.324 111.367 224.001 111.694 223.612 111.922L162.31 147.315Z" fill="#B9D835"/>
<path d="M138.867 183.829L77.5643 219.222C77.1673 219.466 76.7113 219.597 76.2455 219.6C75.7797 219.604 75.3218 219.48 74.9211 219.243C74.5205 219.005 74.1923 218.662 73.9721 218.252C73.7519 217.841 73.648 217.379 73.6716 216.913L73.7163 146.205L73.7123 75.4123C73.7148 74.9615 73.8353 74.5192 74.0618 74.1295C74.2883 73.7397 74.6129 73.4161 75.0032 73.1907C75.3936 72.9653 75.8362 72.846 76.287 72.8448C76.7378 72.8435 77.181 72.9603 77.5727 73.1835L138.879 108.583L200.136 143.899C200.524 144.128 200.844 144.455 201.067 144.846C201.289 145.237 201.405 145.68 201.403 146.13C201.402 146.58 201.282 147.022 201.057 147.412C200.832 147.802 200.509 148.126 200.12 148.352L138.867 183.829Z" stroke="#303030" stroke-width="3.48326" stroke-miterlimit="10"/>
</g>
<defs>
<clipPath id="clip0_25_7">
<rect width="187" height="149.391" fill="white" transform="translate(0 93.5) rotate(-30)"/>
</clipPath>
</defs>
</svg>
