<svg width="309" height="310" viewBox="0 0 309 310" fill="none" xmlns="http://www.w3.org/2000/svg">
<path d="M222.413 186.106L156.883 251.635C156.462 252.05 155.94 252.347 155.368 252.497C154.796 252.647 154.195 252.644 153.625 252.489C153.055 252.334 152.535 252.032 152.118 251.613C151.701 251.194 151.401 250.673 151.248 250.102L127.286 160.634L103.301 71.1422C103.141 70.5703 103.136 69.9663 103.287 69.3919C103.437 68.8175 103.738 68.2936 104.158 67.8737C104.578 67.4538 105.102 67.1532 105.676 67.0027C106.251 66.8521 106.855 66.8571 107.426 67.017L196.918 91.0016L286.387 114.964C286.958 115.117 287.478 115.417 287.897 115.834C288.316 116.251 288.618 116.77 288.773 117.341C288.928 117.911 288.931 118.512 288.781 119.084C288.631 119.656 288.334 120.178 287.92 120.599L222.413 186.106Z" fill="#B9D835"/>
<path d="M205.146 240.206L139.639 305.713C139.22 306.156 138.687 306.476 138.1 306.638C137.512 306.8 136.891 306.799 136.304 306.634C135.717 306.469 135.187 306.147 134.769 305.703C134.352 305.259 134.064 304.709 133.936 304.113L110.041 214.712L86.0568 125.22C85.9073 124.649 85.9098 124.05 86.0641 123.48C86.2184 122.911 86.5191 122.392 86.9362 121.974C87.3534 121.557 87.8725 121.257 88.4419 121.102C89.0114 120.948 89.6113 120.945 90.182 121.095L179.673 145.08L269.075 168.974C269.642 169.133 270.158 169.437 270.571 169.856C270.985 170.276 271.281 170.796 271.432 171.366C271.582 171.935 271.581 172.534 271.429 173.103C271.276 173.672 270.977 174.191 270.562 174.609L205.146 240.206Z" stroke="#303030" stroke-width="4.55871" stroke-miterlimit="10"/>
</svg>
