<svg width="106" height="106" viewBox="0 0 106 106" fill="none" xmlns="http://www.w3.org/2000/svg">
<g clip-path="url(#clip0_108_1599)">
<path d="M72.1321 90.4042L66.027 67.85C65.7171 66.6998 65.6372 65.4997 65.7919 64.3185C65.9466 63.1373 66.3328 61.9982 66.9284 60.9666C67.5241 59.9349 68.3174 59.0309 69.263 58.3063C70.2086 57.5818 71.2879 57.0509 72.439 56.7442L95.0662 50.6812C96.2212 50.3761 97.3045 49.8455 98.2535 49.12C99.2026 48.3944 99.9987 47.4883 100.596 46.4537C101.193 45.4191 101.58 44.2766 101.734 43.0919C101.888 41.9072 101.806 40.7038 101.492 39.551C101.187 38.396 100.657 37.3127 99.931 36.3637C99.2055 35.4146 98.2993 34.6185 97.2647 34.0212C96.2301 33.4239 95.0876 33.0371 93.9029 32.8833C92.7182 32.7295 91.5148 32.8116 90.362 33.1249L67.85 39.157C66.6998 39.4669 65.4997 39.5468 64.3185 39.3921C63.1373 39.2374 61.9982 38.8512 60.9665 38.2556C59.9349 37.6599 59.0309 36.8666 58.3063 35.921C57.5818 34.9754 57.0509 33.8961 56.7441 32.745L50.5378 10.1974C49.9053 7.90455 48.396 5.95263 46.3362 4.76338C44.2763 3.57414 41.8313 3.24305 39.5294 3.84166C37.2365 4.47422 35.2846 5.98346 34.0954 8.0433C32.9061 10.1031 32.575 12.5482 33.1736 14.8501L39.2366 37.4773C39.5465 38.6276 39.6264 39.8277 39.4717 41.0089C39.317 42.1901 38.9308 43.3291 38.3352 44.3608C37.7395 45.3925 36.9462 46.2965 36.0006 47.0211C35.055 47.7456 33.9757 48.2765 32.8246 48.5832L10.1974 54.6462C9.04236 54.9512 7.95912 55.4818 7.01006 56.2074C6.061 56.9329 5.26488 57.8391 4.66756 58.8737C4.07025 59.9083 3.68355 61.0508 3.52973 62.2355C3.37591 63.4202 3.45803 64.6236 3.77134 65.7764C4.07641 66.9314 4.607 68.0147 5.33256 68.9637C6.05811 69.9128 6.96427 70.7089 7.99885 71.3062C9.03343 71.9035 10.176 72.2902 11.3607 72.444C12.5453 72.5979 13.7488 72.5157 14.9016 72.2024L37.5288 66.1395C38.6791 65.8296 39.8792 65.7497 41.0603 65.9044C42.2415 66.0591 43.3806 66.4453 44.4123 67.0409C45.4439 67.6366 46.348 68.4299 47.0725 69.3755C47.7971 70.3211 48.3279 71.4004 48.6347 72.5515L54.6976 95.1787C55.0027 96.3337 55.5333 97.417 56.2588 98.366C56.9844 99.3151 57.8905 100.111 58.9251 100.709C59.9597 101.306 61.1022 101.693 62.2869 101.846C63.4716 102 64.675 101.918 65.8278 101.605C66.9796 101.287 68.057 100.745 68.9982 100.009C69.9394 99.2728 70.7256 98.358 71.3116 97.3168C71.8976 96.2757 72.2718 95.1289 72.4126 93.9425C72.5534 92.7561 72.4581 91.5536 72.1321 90.4042Z" fill="#B4D667"/>
</g>
<defs>
<clipPath id="clip0_108_1599">
<rect width="77" height="77" fill="white" transform="translate(38.5) rotate(30)"/>
</clipPath>
</defs>
</svg>
