<svg width="63" height="63" viewBox="0 0 63 63" fill="none" xmlns="http://www.w3.org/2000/svg">
<g clip-path="url(#clip0_50_274)">
<path d="M30.2334 56.8181L33.8118 43.3258C33.995 42.6381 34.3122 41.9933 34.745 41.4284C35.1779 40.8635 35.7179 40.3896 36.3343 40.0338C36.9506 39.6779 37.6311 39.4472 38.3367 39.3548C39.0424 39.2624 39.7593 39.3101 40.4465 39.4952L53.964 43.1173C54.6527 43.3044 55.3716 43.3535 56.0794 43.2616C56.7871 43.1697 57.4697 42.9387 58.0877 42.5819C58.7058 42.225 59.2471 41.7494 59.6806 41.1825C60.114 40.6155 60.431 39.9683 60.6133 39.2783C60.8004 38.5896 60.8495 37.8707 60.7576 37.163C60.6657 36.4553 60.4347 35.7727 60.0779 35.1546C59.721 34.5366 59.2454 33.9952 58.6784 33.5618C58.1115 33.1283 57.4643 32.8114 56.7743 32.6291L43.3256 29.0255C42.6379 28.8423 41.9932 28.5251 41.4283 28.0923C40.8634 27.6594 40.3894 27.1194 40.0336 26.5031C39.6778 25.8867 39.447 25.2063 39.3546 24.5006C39.2622 23.795 39.3099 23.078 39.4951 22.3909L43.0191 8.87164C43.3768 7.49646 43.179 6.03579 42.4685 4.80524C41.758 3.57468 40.592 2.67305 39.2222 2.29516C37.847 1.93755 36.3864 2.13534 35.1558 2.8458C33.9253 3.55626 33.0236 4.72235 32.6457 6.09209L29.0237 19.6097C28.8405 20.2973 28.5233 20.9421 28.0905 21.507C27.6576 22.0719 27.1176 22.5458 26.5012 22.9017C25.8849 23.2575 25.2044 23.4882 24.4988 23.5807C23.7932 23.6731 23.0762 23.6253 22.389 23.4402L8.87147 19.8182C8.18278 19.631 7.46386 19.5819 6.75612 19.6738C6.04839 19.7657 5.36583 19.9967 4.74777 20.3536C4.12971 20.7104 3.58836 21.186 3.15491 21.753C2.72147 22.32 2.40449 22.9671 2.22224 23.6571C2.03507 24.3458 1.98601 25.0647 2.0779 25.7725C2.16979 26.4802 2.40081 27.1627 2.75765 27.7808C3.11449 28.3989 3.59009 28.9402 4.15706 29.3737C4.72403 29.8071 5.37116 30.1241 6.06118 30.3063L19.5787 33.9284C20.2664 34.1116 20.9112 34.4287 21.4761 34.8616C22.041 35.2944 22.5149 35.8345 22.8708 36.4508C23.2266 37.0672 23.4573 37.7476 23.5497 38.4533C23.6421 39.1589 23.5944 39.8759 23.4093 40.563L19.7873 54.0806C19.6001 54.7693 19.551 55.4882 19.6429 56.1959C19.7348 56.9037 19.9658 57.5862 20.3227 58.2043C20.6795 58.8224 21.1551 59.3637 21.7221 59.7972C22.289 60.2306 22.9362 60.5476 23.6262 60.7298C24.3169 60.9095 25.0364 60.9507 25.7431 60.8511C26.4499 60.7515 27.1299 60.513 27.7441 60.1494C28.3583 59.7858 28.8944 59.3043 29.3216 58.7325C29.7489 58.1608 30.0588 57.5102 30.2334 56.8181Z" fill="#B4D667"/>
</g>
<defs>
<clipPath id="clip0_50_274">
<rect width="46" height="46" fill="white" transform="translate(39.8372) rotate(60)"/>
</clipPath>
</defs>
</svg>
