<svg width="261" height="186" viewBox="0 0 261 186" fill="none" xmlns="http://www.w3.org/2000/svg">
<path d="M7.56123 35.3127C22.7752 47.4919 37.2646 45.8876 47.8385 44.6973C57.3429 43.645 61.7932 43.3862 67.8132 48.1475C73.8333 52.9087 74.5577 57.3767 75.5927 66.8648C76.7656 77.4569 78.3353 91.9477 93.5665 104.144C108.798 116.341 123.27 114.788 133.844 113.598C143.331 112.545 147.781 112.287 153.819 117.048C159.856 121.809 160.546 126.346 161.615 135.834C162.771 146.409 164.358 160.9 179.572 173.096C194.786 185.293 209.275 183.671 219.849 182.498C229.336 181.428 233.787 181.17 239.824 185.948L257.073 164.402C241.842 152.274 227.353 153.879 216.813 155.069C207.326 156.121 202.876 156.38 196.838 151.619C190.801 146.858 190.059 142.321 189.024 132.833C187.869 122.24 186.282 107.75 171.068 95.5704C155.854 83.3912 141.364 84.9956 130.791 86.2549C121.286 87.3072 116.836 87.5832 110.816 82.8047C104.796 78.0262 104.071 73.4374 102.967 63.9321C101.812 53.3573 100.225 38.8664 85.0108 26.67C69.7969 14.4736 55.3764 16.0952 44.7854 17.251C35.2982 18.3205 30.8479 18.5793 24.8106 13.8008L7.56123 35.3127Z" fill="#B9D835"/>
<path d="M9.07315 23.9618C24.3043 36.2273 38.7938 34.5022 49.3676 33.3636C58.8548 32.3113 63.3051 32.0525 69.3424 36.8138C75.3797 41.5751 76.0869 46.0431 77.1219 55.5311C78.2776 66.106 79.8645 80.614 95.0784 92.7932C110.292 104.972 124.73 103.506 135.356 102.264C144.86 101.212 149.31 100.936 155.33 105.714C161.35 110.493 162.075 114.943 163.11 124.449C164.266 135.024 165.853 149.514 181.066 161.711C196.28 173.907 210.77 172.337 221.326 171.147C230.831 170.095 235.281 169.836 241.301 174.597L258.551 153.051C243.337 140.854 228.864 142.476 218.273 143.649C208.786 144.719 204.336 144.977 198.316 140.199C192.296 135.42 191.571 130.97 190.536 121.482C189.363 110.889 187.776 96.3987 172.563 84.2195C157.349 72.0403 142.859 73.6446 132.285 74.8177C122.798 75.87 118.348 76.1288 112.328 71.3675C106.308 66.6062 105.601 62.1037 104.548 52.5985C103.393 42.0236 101.806 27.5328 86.5918 15.3364C71.3778 3.13991 56.8884 4.7615 46.3145 5.93457C36.8101 6.98688 32.3598 7.26289 26.3398 2.48438L9.07315 23.9618Z" stroke="#303030" stroke-width="2" stroke-miterlimit="10"/>
</svg>
