<svg width="30" height="30" viewBox="0 0 30 30" fill="none" xmlns="http://www.w3.org/2000/svg">
<g clip-path="url(#clip0_50_278)">
<path d="M4.8975 23.6698L11.2059 20.0061C11.5277 19.8197 11.8832 19.6987 12.2519 19.6499C12.6206 19.6011 12.9954 19.6255 13.3546 19.7218C13.7139 19.818 14.0506 19.9842 14.3455 20.2108C14.6404 20.4375 14.8877 20.72 15.0733 21.0424L18.7301 27.3762C18.9154 27.6999 19.163 27.9837 19.4585 28.2113C19.754 28.4389 20.0916 28.6057 20.4519 28.7023C20.8121 28.7988 21.1879 28.8231 21.5576 28.7738C21.9273 28.7244 22.2836 28.6024 22.6059 28.4148C22.9296 28.2294 23.2134 27.9819 23.441 27.6864C23.6686 27.3909 23.8354 27.0533 23.932 26.693C24.0285 26.3327 24.0528 25.9569 24.0035 25.5872C23.9541 25.2175 23.8321 24.8613 23.6445 24.5389L20.0063 18.2373C19.8198 17.9155 19.6988 17.56 19.65 17.1913C19.6012 16.8226 19.6256 16.4479 19.7219 16.0886C19.8181 15.7294 19.9843 15.3926 20.211 15.0977C20.4376 14.8028 20.7202 14.5555 21.0425 14.37L27.3408 10.6763C27.9811 10.3003 28.4478 9.68741 28.64 8.97012C28.8322 8.25283 28.7345 7.48872 28.3679 6.84289C27.9919 6.20254 27.379 5.73585 26.6617 5.54366C25.9444 5.35146 25.1803 5.44919 24.5345 5.81572L18.2007 9.47257C17.8788 9.65897 17.5233 9.78004 17.1546 9.82884C16.7859 9.87764 16.4112 9.85321 16.0519 9.75695C15.6927 9.66068 15.356 9.49448 15.061 9.26786C14.7661 9.04125 14.5188 8.75866 14.3333 8.43631L10.6764 2.10247C10.4911 1.7788 10.2436 1.495 9.94807 1.26741C9.65257 1.03983 9.31497 0.872968 8.9547 0.776434C8.59443 0.6799 8.21862 0.655605 7.84892 0.704949C7.47922 0.754293 7.12294 0.876299 6.8006 1.06394C6.47693 1.24927 6.19313 1.49682 5.96555 1.79232C5.73797 2.08781 5.5711 2.42542 5.47457 2.78569C5.37803 3.14596 5.35374 3.52176 5.40308 3.89146C5.45243 4.26116 5.57443 4.61744 5.76207 4.93978L9.41892 11.2736C9.60532 11.5955 9.7264 11.9509 9.7752 12.3196C9.82399 12.6884 9.79956 13.0631 9.7033 13.4223C9.60704 13.7816 9.44083 14.1183 9.21422 14.4132C8.9876 14.7082 8.70502 14.9555 8.38266 15.141L2.04882 18.7978C1.72515 18.9832 1.44135 19.2307 1.21377 19.5262C0.986185 19.8217 0.81932 20.1593 0.722787 20.5196C0.626253 20.8798 0.601958 21.2557 0.651301 21.6254C0.700646 21.9951 0.822653 22.3513 1.01029 22.6737C1.19915 22.9953 1.4498 23.2764 1.74778 23.5008C2.04577 23.7252 2.3852 23.8883 2.74653 23.9809C3.10786 24.0735 3.48394 24.0937 3.85311 24.0403C4.22227 23.9869 4.57722 23.861 4.8975 23.6698Z" fill="#B4D667"/>
</g>
<defs>
<clipPath id="clip0_50_278">
<rect width="24.0403" height="24.0403" fill="white" transform="translate(29.4432 6.22168) rotate(105)"/>
</clipPath>
</defs>
</svg>
