<svg width="210" height="239" viewBox="0 0 210 239" fill="none" xmlns="http://www.w3.org/2000/svg">
<g clip-path="url(#clip0_50_409)">
<path d="M154.62 83.0086L174.521 157.281C174.644 157.755 174.641 158.254 174.511 158.727C174.382 159.2 174.13 159.631 173.782 159.976C173.434 160.321 173.002 160.57 172.528 160.696C172.054 160.822 171.555 160.821 171.081 160.694L96.852 140.795L22.597 120.903C22.1198 120.781 21.6837 120.534 21.3334 120.187C20.9831 119.841 20.7313 119.408 20.6038 118.932C20.4763 118.456 20.4777 117.955 20.6078 117.479C20.7379 117.004 20.9921 116.572 21.3442 116.228L75.7049 61.8732L130.04 7.52556C130.387 7.1788 130.818 6.92904 131.292 6.80121C131.765 6.67339 132.264 6.67197 132.738 6.79711C133.212 6.92223 133.645 7.16953 133.994 7.51432C134.343 7.85911 134.595 8.28933 134.725 8.76204L154.62 83.0086Z" fill="#B9D835"/>
<path d="M186.33 117.86L206.225 192.107C206.369 192.592 206.378 193.107 206.251 193.596C206.123 194.086 205.865 194.532 205.503 194.885C205.141 195.238 204.69 195.486 204.197 195.602C203.705 195.717 203.19 195.696 202.709 195.541L128.556 175.621L54.301 155.729C53.8289 155.6 53.3988 155.349 53.0537 155.002C52.7085 154.655 52.4603 154.224 52.3336 153.751C52.2069 153.278 52.2062 152.78 52.3316 152.307C52.4569 151.834 52.704 151.402 53.0482 151.054L107.409 96.6994L161.667 42.3723C162.017 42.0304 162.449 41.7859 162.922 41.6628C163.395 41.5397 163.892 41.5425 164.364 41.6707C164.836 41.7989 165.265 42.0482 165.611 42.3939C165.957 42.7395 166.206 43.1695 166.334 43.6412L186.33 117.86Z" stroke="#303030" stroke-width="2.90492" stroke-miterlimit="10"/>
</g>
<defs>
<clipPath id="clip0_50_409">
<rect width="203.062" height="162.222" fill="white" transform="translate(52.5563 238.129) rotate(-105)"/>
</clipPath>
</defs>
</svg>
