<svg width="253" height="186" viewBox="0 0 253 186" fill="none" xmlns="http://www.w3.org/2000/svg">
<path d="M252.989 34.8284C237.775 47.0076 223.286 45.4032 212.712 44.2129C203.208 43.1606 198.757 42.9018 192.737 47.6631C186.717 52.4244 185.993 56.8924 184.958 66.3804C183.785 76.9725 182.215 91.4633 166.984 103.66C151.753 115.856 137.281 114.304 126.707 113.113C117.22 112.061 112.769 111.802 106.732 116.563C100.695 121.325 100.005 125.862 98.9353 135.35C97.7796 145.925 96.1927 160.415 80.9788 172.612C65.7648 184.808 51.2754 183.187 40.7015 182.014C31.2144 180.944 26.764 180.685 20.7268 185.464L3.47742 163.917C18.7086 151.79 33.1981 153.394 43.7374 154.585C53.2246 155.637 57.6749 155.896 63.7122 151.134C69.7494 146.373 70.4912 141.836 71.5261 132.348C72.6818 121.756 74.2688 107.265 89.4827 95.086C104.697 82.9068 119.186 84.5112 129.76 85.7705C139.264 86.8228 143.715 87.0988 149.735 82.3203C155.755 77.5418 156.479 72.953 157.583 63.4477C158.739 52.8729 160.326 38.3821 175.54 26.1856C190.754 13.9892 205.174 15.6108 215.765 16.7666C225.252 17.8362 229.703 18.0949 235.74 13.3164L252.989 34.8284Z" fill="#B9D835"/>
<path d="M251.477 23.4775C236.246 35.7429 221.757 34.0178 211.183 32.8792C201.696 31.8269 197.245 31.5682 191.208 36.3294C185.171 41.0907 184.464 45.5587 183.429 55.0467C182.273 65.6216 180.686 80.1297 165.472 92.3089C150.258 104.488 135.821 103.022 125.195 101.78C115.691 100.727 111.24 100.451 105.22 105.23C99.2001 110.008 98.4757 114.459 97.4407 123.964C96.285 134.539 94.698 149.03 79.4841 161.226C64.2702 173.423 49.7807 171.853 39.2241 170.663C29.7197 169.61 25.2694 169.352 19.2494 174.113L2 152.567C17.2139 140.37 31.6861 141.992 42.2772 143.165C51.7644 144.234 56.2147 144.493 62.2348 139.715C68.2548 134.936 68.9793 130.485 70.0142 120.997C71.1872 110.405 72.7741 95.9143 87.988 83.7351C103.202 71.5559 117.691 73.1603 128.265 74.3333C137.752 75.3856 142.203 75.6444 148.223 70.8831C154.243 66.1219 154.95 61.6194 156.002 52.1141C157.158 41.5392 158.745 27.0484 173.959 14.852C189.173 2.65554 203.662 4.27713 214.236 5.45019C223.74 6.5025 228.191 6.77852 234.211 2L251.477 23.4775Z" stroke="#303030" stroke-width="2" stroke-miterlimit="10"/>
</svg>
