<svg width="202" height="53" viewBox="0 0 202 53" fill="none" xmlns="http://www.w3.org/2000/svg">
<path fill-rule="evenodd" clip-rule="evenodd" d="M11.6781 5.10509L16.0628 2.55255L20.4476 0V5.10509V10.2107L16.0628 7.6582L11.6781 5.10509Z" fill="#CED893"/>
<path fill-rule="evenodd" clip-rule="evenodd" d="M20.4476 10.204L16.0628 12.7565L11.6781 15.309V10.204V5.09887L16.0628 7.65141L20.4476 10.204Z" fill="#829F65"/>
<path fill-rule="evenodd" clip-rule="evenodd" d="M20.4476 20.4147L16.0628 17.8622L11.6781 15.3091V20.4147V25.5198L16.0628 22.9673L20.4476 20.4147Z" fill="#CED893"/>
<path fill-rule="evenodd" clip-rule="evenodd" d="M11.6781 25.513L16.0628 28.0661L20.4476 30.6186V25.513V20.4079L16.0628 22.9604L11.6781 25.513Z" fill="#829F65"/>
<path fill-rule="evenodd" clip-rule="evenodd" d="M11.6781 35.7238L16.0628 33.1712L20.4476 30.6187V35.7238V40.8294L16.0628 38.2763L11.6781 35.7238Z" fill="#CED893"/>
<path fill-rule="evenodd" clip-rule="evenodd" d="M11.6781 45.9283L16.0628 43.3751L20.4476 40.8226V45.9283V51.0333L16.0628 48.4808L11.6781 45.9283Z" fill="#94AF22"/>
<path fill-rule="evenodd" clip-rule="evenodd" d="M20.4476 30.6186L16.0628 28.0661L11.6781 25.513V30.6186V35.7237L16.0628 33.1712L20.4476 30.6186Z" fill="#94AF22"/>
<path fill-rule="evenodd" clip-rule="evenodd" d="M20.4476 40.826L16.0628 38.2735L11.6781 35.7209V40.826V45.9311L16.0628 43.3786L20.4476 40.826Z" fill="#303030"/>
<path fill-rule="evenodd" clip-rule="evenodd" d="M11.6781 15.3091L16.0628 12.7565L20.4476 10.204V15.3091V20.4147L16.0628 17.8616L11.6781 15.3091Z" fill="#B9D835"/>
<path fill-rule="evenodd" clip-rule="evenodd" d="M22.4172 10.204L26.8014 12.7565L31.1861 15.309V10.204V5.09887L26.8014 7.65141L22.4172 10.204Z" fill="#94AF22"/>
<path fill-rule="evenodd" clip-rule="evenodd" d="M22.4172 20.4147L26.8014 17.8622L31.1861 15.3091V20.4147V25.5198L26.8014 22.9673L22.4172 20.4147Z" fill="#94AF22"/>
<path fill-rule="evenodd" clip-rule="evenodd" d="M31.1861 25.513L26.8014 28.0661L22.4172 30.6186V25.513V20.4079L26.8014 22.9604L31.1861 25.513Z" fill="#829F65"/>
<path fill-rule="evenodd" clip-rule="evenodd" d="M31.1861 35.7238L26.8014 33.1712L22.4172 30.6187V35.7238V40.8294L26.8014 38.2763L31.1861 35.7238Z" fill="#94AF22"/>
<path fill-rule="evenodd" clip-rule="evenodd" d="M22.4172 30.6186L26.8014 28.0661L31.1861 25.513V30.6186V35.7237L26.8014 33.1712L22.4172 30.6186Z" fill="#B9D835"/>
<path fill-rule="evenodd" clip-rule="evenodd" d="M31.1861 15.3091L26.8014 12.7565L22.4172 10.204V15.3091V20.4147L26.8014 17.8616L31.1861 15.3091Z" fill="#CED893"/>
<path fill-rule="evenodd" clip-rule="evenodd" d="M0.990845 20.4147L5.37557 17.8622L9.7603 15.3091V20.4147V25.5198L5.37557 22.9673L0.990845 20.4147Z" fill="#829F65"/>
<path fill-rule="evenodd" clip-rule="evenodd" d="M9.7603 25.513L5.37557 28.0661L0.990845 30.6186V25.513V20.4079L5.37557 22.9604L9.7603 25.513Z" fill="#B9D835"/>
<path fill-rule="evenodd" clip-rule="evenodd" d="M0.990845 30.6186L5.37557 28.0661L9.7603 25.513V30.6186V35.7237L5.37557 33.1712L0.990845 30.6186Z" fill="#CED893"/>
<path fill-rule="evenodd" clip-rule="evenodd" d="M9.7603 15.3091L5.37557 12.7565L0.990845 10.204V15.3091V20.4147L5.37557 17.8616L9.7603 15.3091Z" fill="#94AF22"/>
<mask id="path-20-outside-1_6_4" maskUnits="userSpaceOnUse" x="41.449" y="3.18846" width="160" height="35" fill="black">
<rect fill="white" x="41.449" y="3.18846" width="160" height="35"/>
<path d="M58.5231 37.3195C55.6247 37.3195 52.961 36.5709 50.5161 35.0897C48.0791 33.6079 46.1268 31.6198 44.6586 29.1256C43.1831 26.6235 42.449 23.8722 42.449 20.8638C42.449 17.8328 43.1904 15.0736 44.6739 12.5788C46.1648 10.084 48.1324 8.09599 50.5847 6.61474C53.0364 5.12556 55.7154 4.38494 58.6138 4.38494C60.0293 4.38494 61.3155 4.51348 62.4583 4.76318C63.6011 5.01289 64.6152 5.30732 65.4854 5.6397C66.3555 5.97207 67.0896 6.275 67.6797 6.55472C68.4666 6.95561 69.0266 7.15209 69.3673 7.15209C69.4807 7.15209 69.5714 7.06885 69.6173 6.88766C69.6706 6.71383 69.7006 6.54 69.7006 6.38145C69.7006 6.24556 69.7687 6.16969 69.92 6.1544C70.0487 6.1544 70.1241 6.23027 70.1394 6.38145V11.7408C70.1093 11.8846 70.0487 11.9599 69.9654 11.9599C69.8593 11.9599 69.7687 11.8993 69.7006 11.7861C69.3599 11.3252 68.8605 10.7431 68.2024 10.0325C67.5443 9.32186 66.7342 8.61125 65.7807 7.89328C64.8346 7.18266 63.7525 6.57793 62.5496 6.07909C61.3461 5.58761 60.0293 5.33847 58.6144 5.33847C56.2607 5.33847 54.1571 6.04908 52.2955 7.47767C50.4339 8.89889 48.9578 10.7884 47.8835 13.132C46.8014 15.483 46.264 18.0604 46.264 20.8649C46.264 22.9588 46.5593 24.9395 47.1648 26.8063C47.7628 28.6732 48.6023 30.3288 49.6998 31.7574C50.7973 33.1939 52.0914 34.3202 53.5896 35.1367C55.0879 35.9532 56.738 36.3688 58.5237 36.3688C59.9613 36.3688 61.2781 36.1191 62.4816 35.6355C63.685 35.144 64.7592 34.5546 65.7053 33.8513C66.6514 33.1486 67.4536 32.4528 68.1117 31.7501C68.7704 31.0468 69.2698 30.45 69.6179 29.9659C69.9659 29.4744 70.1399 29.2326 70.1399 29.2326V33.9952C70.1399 33.9952 69.9053 34.169 69.4285 34.5014C68.9592 34.8417 68.2404 35.2273 67.279 35.6582C66.3181 36.0811 65.1147 36.4667 63.6538 36.807C62.201 37.1473 60.4907 37.3212 58.5231 37.3212V37.3195ZM88.9345 24.3404L83.6598 9.19163L78.4077 24.3404H88.9345ZM97.2062 36.5409H91.7501C91.6214 36.5409 91.546 36.465 91.5307 36.3218C91.5307 36.1553 91.5835 36.0721 91.6895 36.0721L91.8862 36.0947C92.2722 36.0947 92.4536 35.7544 92.4389 35.0817C92.4389 34.6961 91.3794 31.4307 89.2451 25.2928H78.075L75.4566 32.8672C75.396 33.0716 75.3353 33.2455 75.2826 33.3967C75.1613 33.7217 75.0706 34.0014 75.0099 34.2358C74.9572 34.4776 74.9266 34.742 74.9266 35.037L74.9719 35.657C75.002 35.952 75.1992 36.0953 75.57 36.0953C75.7287 36.0953 75.8273 36.1712 75.8574 36.3223C75.8574 36.4662 75.7814 36.5415 75.6306 36.5415H72.2175C72.0735 36.5415 71.9981 36.4656 71.9981 36.3223C71.9981 36.1559 72.0962 36.0806 72.2855 36.0953C72.6563 36.0953 73.027 35.8609 73.3977 35.392C73.7611 34.9158 74.0638 34.349 74.3059 33.6837L84.2572 4.8685H85.1654L95.102 33.6837C95.352 34.349 95.6621 34.9158 96.0328 35.392C96.4035 35.8609 96.7669 36.0953 97.1376 36.0953C97.319 36.0953 97.4097 36.1712 97.425 36.3223C97.425 36.4662 97.357 36.5415 97.2057 36.5415L97.2062 36.5409ZM112.361 37.3195C109.463 37.3195 106.799 36.5709 104.354 35.0897C101.917 33.6079 99.9652 31.6198 98.497 29.1256C97.0214 26.6235 96.2873 23.8722 96.2873 20.8638C96.2873 17.8328 97.0288 15.0736 98.5123 12.5788C100.003 10.084 101.971 8.09599 104.423 6.61474C106.875 5.12556 109.554 4.38494 112.452 4.38494C113.868 4.38494 115.154 4.51348 116.297 4.76318C117.439 5.01289 118.454 5.30732 119.324 5.6397C120.194 5.97207 120.928 6.275 121.518 6.55472C122.305 6.95561 122.865 7.15209 123.206 7.15209C123.319 7.15209 123.41 7.06885 123.456 6.88766C123.509 6.71383 123.539 6.54 123.539 6.38145C123.539 6.24556 123.607 6.16969 123.758 6.1544C123.887 6.1544 123.962 6.23027 123.978 6.38145V11.7408C123.948 11.8846 123.887 11.9599 123.804 11.9599C123.698 11.9599 123.607 11.8993 123.539 11.7861C123.198 11.3252 122.699 10.7431 122.041 10.0325C121.383 9.32186 120.573 8.61125 119.619 7.89328C118.673 7.18266 117.591 6.57793 116.388 6.07909C115.184 5.58761 113.868 5.33847 112.453 5.33847C110.099 5.33847 107.995 6.04908 106.134 7.47767C104.272 8.89889 102.796 10.7884 101.722 13.132C100.64 15.483 100.102 18.0604 100.102 20.8649C100.102 22.9588 100.398 24.9395 101.003 26.8063C101.601 28.6732 102.441 30.3288 103.538 31.7574C104.636 33.1939 105.93 34.3202 107.428 35.1367C108.926 35.9532 110.576 36.3688 112.362 36.3688C113.8 36.3688 115.116 36.1191 116.32 35.6355C117.523 35.144 118.598 34.5546 119.544 33.8513C120.49 33.1486 121.292 32.4528 121.95 31.7501C122.609 31.0468 123.108 30.45 123.456 29.9659C123.804 29.4744 123.978 29.2326 123.978 29.2326V33.9952C123.978 33.9952 123.744 34.169 123.267 34.5014C122.798 34.8417 122.079 35.2273 121.117 35.6582C120.156 36.0811 118.953 36.4667 117.492 36.807C116.039 37.1473 114.329 37.3212 112.361 37.3212V37.3195ZM141.108 36.5409H135.251C135.122 36.5409 135.046 36.465 135.031 36.3218C135.031 36.1859 135.107 36.11 135.251 36.0947C135.637 36.0947 135.962 35.8909 136.219 35.4747C136.477 35.0665 136.605 34.4697 136.605 33.6832V5.84297H133.215C131.739 5.84297 130.438 6.11476 129.31 6.65154C128.19 7.19569 127.539 7.85364 127.357 8.63956C127.342 8.66221 127.342 8.69279 127.342 8.7228C127.312 8.79867 127.281 8.85869 127.259 8.90399C127.236 8.94929 127.183 8.97194 127.092 8.97194C126.933 8.97194 126.85 8.88134 126.85 8.69958L127.539 4.8668H148.819L149.508 8.69958C149.508 8.88077 149.424 8.97194 149.266 8.97194C149.175 8.97194 149.122 8.94929 149.099 8.90399C149.076 8.85869 149.054 8.79811 149.023 8.7228C149.023 8.69279 149.016 8.66221 149 8.63956C148.804 7.85364 148.153 7.19569 147.04 6.65154C145.92 6.11476 144.626 5.84297 143.143 5.84297H139.753V33.6832C139.753 34.3332 139.866 34.9 140.101 35.3762C140.328 35.8603 140.6 36.0942 140.925 36.0942H141.107C141.236 36.0942 141.311 36.17 141.326 36.3212C141.326 36.4497 141.25 36.5251 141.107 36.5403L141.108 36.5409ZM164.05 37.1836C161.712 37.1836 159.722 36.7527 158.064 35.8982C156.407 35.0444 155.143 33.8949 154.258 32.4511C153.38 31.0151 152.941 29.4274 152.941 27.6812V7.74776C152.941 6.93919 152.812 6.34182 152.563 5.95622C152.313 5.57062 151.995 5.3815 151.609 5.3815C151.549 5.3815 151.496 5.35149 151.443 5.30562C151.389 5.2524 151.367 5.19238 151.367 5.13915C151.367 5.06328 151.389 5.01062 151.443 4.97268C151.495 4.93475 151.549 4.9121 151.609 4.9121H157.467C157.535 4.9121 157.595 4.93475 157.641 4.97268C157.686 5.01062 157.709 5.06328 157.709 5.13915C157.709 5.19238 157.686 5.2524 157.641 5.30562C157.595 5.35092 157.535 5.3815 157.467 5.3815C157.096 5.3815 156.778 5.57062 156.513 5.95622C156.248 6.34182 156.112 6.93919 156.112 7.74776V27.6812C156.157 29.2609 156.528 30.6895 157.217 31.9596C157.913 33.2296 158.935 34.2426 160.266 34.9985C161.606 35.7618 163.233 36.14 165.155 36.14C167.017 36.14 168.621 35.7391 169.968 34.9379C171.315 34.1288 172.352 33.0858 173.086 31.801C173.813 30.5163 174.184 29.1403 174.184 27.6812V7.74776C174.184 6.93919 174.055 6.34182 173.79 5.95622C173.533 5.57062 173.215 5.3815 172.829 5.3815C172.769 5.3815 172.716 5.35149 172.663 5.30562C172.61 5.2524 172.587 5.19238 172.587 5.13915C172.587 5.06328 172.609 5.01062 172.663 4.97268C172.716 4.93475 172.769 4.9121 172.829 4.9121H176.462C176.538 4.9121 176.598 4.93475 176.643 4.97268C176.689 5.01062 176.711 5.06328 176.711 5.13915C176.711 5.23711 176.673 5.30562 176.598 5.33563C176.523 5.36564 176.431 5.38093 176.311 5.38093C175.985 5.38093 175.705 5.61535 175.478 6.07626C175.25 6.54509 175.137 7.0966 175.137 7.74662V27.68C175.137 29.4263 174.713 31.0134 173.881 32.4499C173.048 33.8938 171.807 35.0427 170.158 35.8971C168.508 36.7515 166.473 37.1824 164.051 37.1824L164.05 37.1836ZM188.604 37.4254C187.484 37.4254 186.387 37.3121 185.328 37.085C184.261 36.8506 183.299 36.5936 182.452 36.3065C181.604 36.0194 180.916 35.7623 180.378 35.5432C179.894 35.3541 179.606 35.2561 179.516 35.2561C179.38 35.2561 179.274 35.3394 179.198 35.4979C179.114 35.6644 179.069 35.8003 179.069 35.9215C179.069 36.0273 179.054 36.1179 179.031 36.2085C179.001 36.2991 178.933 36.3444 178.827 36.3444C178.766 36.3444 178.713 36.3144 178.653 36.2612C178.592 36.2159 178.562 36.1627 178.562 36.1174V29.8509C178.577 29.7904 178.607 29.7524 178.653 29.7224C178.698 29.6924 178.736 29.6771 178.781 29.6771C178.903 29.6771 179.001 29.7377 179.069 29.8509C179.145 30.0174 179.326 30.3345 179.606 30.8186C179.886 31.2948 180.28 31.8469 180.779 32.4743C181.279 33.1017 181.907 33.7217 182.656 34.3264C183.398 34.9311 184.276 35.43 185.282 35.8309C186.288 36.2317 187.423 36.4282 188.695 36.4282C190.587 36.4282 192.199 36.1106 193.531 35.4758C194.855 34.8411 195.877 33.994 196.573 32.9284C197.277 31.8701 197.633 30.6986 197.633 29.4133C197.633 28.5062 197.391 27.7123 196.921 27.0096C196.445 26.3064 195.816 25.6643 195.022 25.0822C194.235 24.5001 193.334 23.956 192.32 23.4571C191.306 22.9509 190.254 22.4521 189.157 21.9453C187.946 21.4164 186.765 20.8491 185.6 20.2523C184.442 19.6549 183.39 18.9975 182.451 18.2716C181.513 17.5457 180.764 16.7298 180.189 15.8148C179.622 14.9003 179.342 13.8341 179.342 12.6247C179.342 10.9237 179.834 9.44247 180.832 8.17979C181.831 6.91767 183.148 5.94206 184.768 5.23938C186.395 4.53669 188.158 4.18846 190.05 4.18846C191.23 4.18846 192.35 4.33964 193.402 4.64937C194.462 4.95909 195.332 5.2541 196.013 5.53381C196.573 5.7603 196.937 5.86619 197.095 5.86619C197.171 5.86619 197.239 5.82825 197.307 5.74502C197.375 5.66914 197.429 5.57118 197.474 5.45794C197.519 5.35206 197.542 5.25353 197.542 5.18558C197.542 4.91323 197.618 4.77734 197.761 4.76261C197.837 4.76261 197.905 4.78526 197.965 4.83056C198.019 4.87586 198.049 4.92852 198.049 5.00439V10.4775C198.033 10.5381 198.003 10.5755 197.951 10.5981C197.897 10.6208 197.845 10.6281 197.784 10.6281C197.739 10.6281 197.693 10.6208 197.648 10.5981C197.61 10.5755 197.572 10.5376 197.542 10.4775C197.527 10.4322 197.497 10.379 197.451 10.3184C197.323 10.0387 197.073 9.6231 196.71 9.07895C196.346 8.53481 195.862 7.96009 195.249 7.35536C194.636 6.75063 193.872 6.22914 192.971 5.79031C192.071 5.35206 191.011 5.14029 189.778 5.14029C188.408 5.14029 187.137 5.38999 185.978 5.88884C184.82 6.39504 183.89 7.10566 183.193 8.0354C182.505 8.9725 182.157 10.0687 182.157 11.3388C182.157 12.3591 182.407 13.2588 182.921 14.0374C183.428 14.8233 184.109 15.5266 184.956 16.1539C185.811 16.7813 186.773 17.3634 187.855 17.8928C188.93 18.4217 190.049 18.9511 191.2 19.4652C192.411 19.9947 193.599 20.5535 194.756 21.1356C195.915 21.725 196.966 22.3677 197.905 23.0783C198.843 23.781 199.592 24.5901 200.16 25.4899C200.72 26.3896 201 27.44 201 28.6347C201 30.3051 200.463 31.8022 199.388 33.1322C198.321 34.4629 196.853 35.5058 194.992 36.277C193.13 37.0403 191.003 37.4259 188.604 37.4259V37.4254Z"/>
</mask>
<path d="M58.5231 37.3195C55.6247 37.3195 52.961 36.5709 50.5161 35.0897C48.0791 33.6079 46.1268 31.6198 44.6586 29.1256C43.1831 26.6235 42.449 23.8722 42.449 20.8638C42.449 17.8328 43.1904 15.0736 44.6739 12.5788C46.1648 10.084 48.1324 8.09599 50.5847 6.61474C53.0364 5.12556 55.7154 4.38494 58.6138 4.38494C60.0293 4.38494 61.3155 4.51348 62.4583 4.76318C63.6011 5.01289 64.6152 5.30732 65.4854 5.6397C66.3555 5.97207 67.0896 6.275 67.6797 6.55472C68.4666 6.95561 69.0266 7.15209 69.3673 7.15209C69.4807 7.15209 69.5714 7.06885 69.6173 6.88766C69.6706 6.71383 69.7006 6.54 69.7006 6.38145C69.7006 6.24556 69.7687 6.16969 69.92 6.1544C70.0487 6.1544 70.1241 6.23027 70.1394 6.38145V11.7408C70.1093 11.8846 70.0487 11.9599 69.9654 11.9599C69.8593 11.9599 69.7687 11.8993 69.7006 11.7861C69.3599 11.3252 68.8605 10.7431 68.2024 10.0325C67.5443 9.32186 66.7342 8.61125 65.7807 7.89328C64.8346 7.18266 63.7525 6.57793 62.5496 6.07909C61.3461 5.58761 60.0293 5.33847 58.6144 5.33847C56.2607 5.33847 54.1571 6.04908 52.2955 7.47767C50.4339 8.89889 48.9578 10.7884 47.8835 13.132C46.8014 15.483 46.264 18.0604 46.264 20.8649C46.264 22.9588 46.5593 24.9395 47.1648 26.8063C47.7628 28.6732 48.6023 30.3288 49.6998 31.7574C50.7973 33.1939 52.0914 34.3202 53.5896 35.1367C55.0879 35.9532 56.738 36.3688 58.5237 36.3688C59.9613 36.3688 61.2781 36.1191 62.4816 35.6355C63.685 35.144 64.7592 34.5546 65.7053 33.8513C66.6514 33.1486 67.4536 32.4528 68.1117 31.7501C68.7704 31.0468 69.2698 30.45 69.6179 29.9659C69.9659 29.4744 70.1399 29.2326 70.1399 29.2326V33.9952C70.1399 33.9952 69.9053 34.169 69.4285 34.5014C68.9592 34.8417 68.2404 35.2273 67.279 35.6582C66.3181 36.0811 65.1147 36.4667 63.6538 36.807C62.201 37.1473 60.4907 37.3212 58.5231 37.3212V37.3195ZM88.9345 24.3404L83.6598 9.19163L78.4077 24.3404H88.9345ZM97.2062 36.5409H91.7501C91.6214 36.5409 91.546 36.465 91.5307 36.3218C91.5307 36.1553 91.5835 36.0721 91.6895 36.0721L91.8862 36.0947C92.2722 36.0947 92.4536 35.7544 92.4389 35.0817C92.4389 34.6961 91.3794 31.4307 89.2451 25.2928H78.075L75.4566 32.8672C75.396 33.0716 75.3353 33.2455 75.2826 33.3967C75.1613 33.7217 75.0706 34.0014 75.0099 34.2358C74.9572 34.4776 74.9266 34.742 74.9266 35.037L74.9719 35.657C75.002 35.952 75.1992 36.0953 75.57 36.0953C75.7287 36.0953 75.8273 36.1712 75.8574 36.3223C75.8574 36.4662 75.7814 36.5415 75.6306 36.5415H72.2175C72.0735 36.5415 71.9981 36.4656 71.9981 36.3223C71.9981 36.1559 72.0962 36.0806 72.2855 36.0953C72.6563 36.0953 73.027 35.8609 73.3977 35.392C73.7611 34.9158 74.0638 34.349 74.3059 33.6837L84.2572 4.8685H85.1654L95.102 33.6837C95.352 34.349 95.6621 34.9158 96.0328 35.392C96.4035 35.8609 96.7669 36.0953 97.1376 36.0953C97.319 36.0953 97.4097 36.1712 97.425 36.3223C97.425 36.4662 97.357 36.5415 97.2057 36.5415L97.2062 36.5409ZM112.361 37.3195C109.463 37.3195 106.799 36.5709 104.354 35.0897C101.917 33.6079 99.9652 31.6198 98.497 29.1256C97.0214 26.6235 96.2873 23.8722 96.2873 20.8638C96.2873 17.8328 97.0288 15.0736 98.5123 12.5788C100.003 10.084 101.971 8.09599 104.423 6.61474C106.875 5.12556 109.554 4.38494 112.452 4.38494C113.868 4.38494 115.154 4.51348 116.297 4.76318C117.439 5.01289 118.454 5.30732 119.324 5.6397C120.194 5.97207 120.928 6.275 121.518 6.55472C122.305 6.95561 122.865 7.15209 123.206 7.15209C123.319 7.15209 123.41 7.06885 123.456 6.88766C123.509 6.71383 123.539 6.54 123.539 6.38145C123.539 6.24556 123.607 6.16969 123.758 6.1544C123.887 6.1544 123.962 6.23027 123.978 6.38145V11.7408C123.948 11.8846 123.887 11.9599 123.804 11.9599C123.698 11.9599 123.607 11.8993 123.539 11.7861C123.198 11.3252 122.699 10.7431 122.041 10.0325C121.383 9.32186 120.573 8.61125 119.619 7.89328C118.673 7.18266 117.591 6.57793 116.388 6.07909C115.184 5.58761 113.868 5.33847 112.453 5.33847C110.099 5.33847 107.995 6.04908 106.134 7.47767C104.272 8.89889 102.796 10.7884 101.722 13.132C100.64 15.483 100.102 18.0604 100.102 20.8649C100.102 22.9588 100.398 24.9395 101.003 26.8063C101.601 28.6732 102.441 30.3288 103.538 31.7574C104.636 33.1939 105.93 34.3202 107.428 35.1367C108.926 35.9532 110.576 36.3688 112.362 36.3688C113.8 36.3688 115.116 36.1191 116.32 35.6355C117.523 35.144 118.598 34.5546 119.544 33.8513C120.49 33.1486 121.292 32.4528 121.95 31.7501C122.609 31.0468 123.108 30.45 123.456 29.9659C123.804 29.4744 123.978 29.2326 123.978 29.2326V33.9952C123.978 33.9952 123.744 34.169 123.267 34.5014C122.798 34.8417 122.079 35.2273 121.117 35.6582C120.156 36.0811 118.953 36.4667 117.492 36.807C116.039 37.1473 114.329 37.3212 112.361 37.3212V37.3195ZM141.108 36.5409H135.251C135.122 36.5409 135.046 36.465 135.031 36.3218C135.031 36.1859 135.107 36.11 135.251 36.0947C135.637 36.0947 135.962 35.8909 136.219 35.4747C136.477 35.0665 136.605 34.4697 136.605 33.6832V5.84297H133.215C131.739 5.84297 130.438 6.11476 129.31 6.65154C128.19 7.19569 127.539 7.85364 127.357 8.63956C127.342 8.66221 127.342 8.69279 127.342 8.7228C127.312 8.79867 127.281 8.85869 127.259 8.90399C127.236 8.94929 127.183 8.97194 127.092 8.97194C126.933 8.97194 126.85 8.88134 126.85 8.69958L127.539 4.8668H148.819L149.508 8.69958C149.508 8.88077 149.424 8.97194 149.266 8.97194C149.175 8.97194 149.122 8.94929 149.099 8.90399C149.076 8.85869 149.054 8.79811 149.023 8.7228C149.023 8.69279 149.016 8.66221 149 8.63956C148.804 7.85364 148.153 7.19569 147.04 6.65154C145.92 6.11476 144.626 5.84297 143.143 5.84297H139.753V33.6832C139.753 34.3332 139.866 34.9 140.101 35.3762C140.328 35.8603 140.6 36.0942 140.925 36.0942H141.107C141.236 36.0942 141.311 36.17 141.326 36.3212C141.326 36.4497 141.25 36.5251 141.107 36.5403L141.108 36.5409ZM164.05 37.1836C161.712 37.1836 159.722 36.7527 158.064 35.8982C156.407 35.0444 155.143 33.8949 154.258 32.4511C153.38 31.0151 152.941 29.4274 152.941 27.6812V7.74776C152.941 6.93919 152.812 6.34182 152.563 5.95622C152.313 5.57062 151.995 5.3815 151.609 5.3815C151.549 5.3815 151.496 5.35149 151.443 5.30562C151.389 5.2524 151.367 5.19238 151.367 5.13915C151.367 5.06328 151.389 5.01062 151.443 4.97268C151.495 4.93475 151.549 4.9121 151.609 4.9121H157.467C157.535 4.9121 157.595 4.93475 157.641 4.97268C157.686 5.01062 157.709 5.06328 157.709 5.13915C157.709 5.19238 157.686 5.2524 157.641 5.30562C157.595 5.35092 157.535 5.3815 157.467 5.3815C157.096 5.3815 156.778 5.57062 156.513 5.95622C156.248 6.34182 156.112 6.93919 156.112 7.74776V27.6812C156.157 29.2609 156.528 30.6895 157.217 31.9596C157.913 33.2296 158.935 34.2426 160.266 34.9985C161.606 35.7618 163.233 36.14 165.155 36.14C167.017 36.14 168.621 35.7391 169.968 34.9379C171.315 34.1288 172.352 33.0858 173.086 31.801C173.813 30.5163 174.184 29.1403 174.184 27.6812V7.74776C174.184 6.93919 174.055 6.34182 173.79 5.95622C173.533 5.57062 173.215 5.3815 172.829 5.3815C172.769 5.3815 172.716 5.35149 172.663 5.30562C172.61 5.2524 172.587 5.19238 172.587 5.13915C172.587 5.06328 172.609 5.01062 172.663 4.97268C172.716 4.93475 172.769 4.9121 172.829 4.9121H176.462C176.538 4.9121 176.598 4.93475 176.643 4.97268C176.689 5.01062 176.711 5.06328 176.711 5.13915C176.711 5.23711 176.673 5.30562 176.598 5.33563C176.523 5.36564 176.431 5.38093 176.311 5.38093C175.985 5.38093 175.705 5.61535 175.478 6.07626C175.25 6.54509 175.137 7.0966 175.137 7.74662V27.68C175.137 29.4263 174.713 31.0134 173.881 32.4499C173.048 33.8938 171.807 35.0427 170.158 35.8971C168.508 36.7515 166.473 37.1824 164.051 37.1824L164.05 37.1836ZM188.604 37.4254C187.484 37.4254 186.387 37.3121 185.328 37.085C184.261 36.8506 183.299 36.5936 182.452 36.3065C181.604 36.0194 180.916 35.7623 180.378 35.5432C179.894 35.3541 179.606 35.2561 179.516 35.2561C179.38 35.2561 179.274 35.3394 179.198 35.4979C179.114 35.6644 179.069 35.8003 179.069 35.9215C179.069 36.0273 179.054 36.1179 179.031 36.2085C179.001 36.2991 178.933 36.3444 178.827 36.3444C178.766 36.3444 178.713 36.3144 178.653 36.2612C178.592 36.2159 178.562 36.1627 178.562 36.1174V29.8509C178.577 29.7904 178.607 29.7524 178.653 29.7224C178.698 29.6924 178.736 29.6771 178.781 29.6771C178.903 29.6771 179.001 29.7377 179.069 29.8509C179.145 30.0174 179.326 30.3345 179.606 30.8186C179.886 31.2948 180.28 31.8469 180.779 32.4743C181.279 33.1017 181.907 33.7217 182.656 34.3264C183.398 34.9311 184.276 35.43 185.282 35.8309C186.288 36.2317 187.423 36.4282 188.695 36.4282C190.587 36.4282 192.199 36.1106 193.531 35.4758C194.855 34.8411 195.877 33.994 196.573 32.9284C197.277 31.8701 197.633 30.6986 197.633 29.4133C197.633 28.5062 197.391 27.7123 196.921 27.0096C196.445 26.3064 195.816 25.6643 195.022 25.0822C194.235 24.5001 193.334 23.956 192.32 23.4571C191.306 22.9509 190.254 22.4521 189.157 21.9453C187.946 21.4164 186.765 20.8491 185.6 20.2523C184.442 19.6549 183.39 18.9975 182.451 18.2716C181.513 17.5457 180.764 16.7298 180.189 15.8148C179.622 14.9003 179.342 13.8341 179.342 12.6247C179.342 10.9237 179.834 9.44247 180.832 8.17979C181.831 6.91767 183.148 5.94206 184.768 5.23938C186.395 4.53669 188.158 4.18846 190.05 4.18846C191.23 4.18846 192.35 4.33964 193.402 4.64937C194.462 4.95909 195.332 5.2541 196.013 5.53381C196.573 5.7603 196.937 5.86619 197.095 5.86619C197.171 5.86619 197.239 5.82825 197.307 5.74502C197.375 5.66914 197.429 5.57118 197.474 5.45794C197.519 5.35206 197.542 5.25353 197.542 5.18558C197.542 4.91323 197.618 4.77734 197.761 4.76261C197.837 4.76261 197.905 4.78526 197.965 4.83056C198.019 4.87586 198.049 4.92852 198.049 5.00439V10.4775C198.033 10.5381 198.003 10.5755 197.951 10.5981C197.897 10.6208 197.845 10.6281 197.784 10.6281C197.739 10.6281 197.693 10.6208 197.648 10.5981C197.61 10.5755 197.572 10.5376 197.542 10.4775C197.527 10.4322 197.497 10.379 197.451 10.3184C197.323 10.0387 197.073 9.6231 196.71 9.07895C196.346 8.53481 195.862 7.96009 195.249 7.35536C194.636 6.75063 193.872 6.22914 192.971 5.79031C192.071 5.35206 191.011 5.14029 189.778 5.14029C188.408 5.14029 187.137 5.38999 185.978 5.88884C184.82 6.39504 183.89 7.10566 183.193 8.0354C182.505 8.9725 182.157 10.0687 182.157 11.3388C182.157 12.3591 182.407 13.2588 182.921 14.0374C183.428 14.8233 184.109 15.5266 184.956 16.1539C185.811 16.7813 186.773 17.3634 187.855 17.8928C188.93 18.4217 190.049 18.9511 191.2 19.4652C192.411 19.9947 193.599 20.5535 194.756 21.1356C195.915 21.725 196.966 22.3677 197.905 23.0783C198.843 23.781 199.592 24.5901 200.16 25.4899C200.72 26.3896 201 27.44 201 28.6347C201 30.3051 200.463 31.8022 199.388 33.1322C198.321 34.4629 196.853 35.5058 194.992 36.277C193.13 37.0403 191.003 37.4259 188.604 37.4259V37.4254Z" fill="#303030"/>
<path d="M58.5231 37.3195C55.6247 37.3195 52.961 36.5709 50.5161 35.0897C48.0791 33.6079 46.1268 31.6198 44.6586 29.1256C43.1831 26.6235 42.449 23.8722 42.449 20.8638C42.449 17.8328 43.1904 15.0736 44.6739 12.5788C46.1648 10.084 48.1324 8.09599 50.5847 6.61474C53.0364 5.12556 55.7154 4.38494 58.6138 4.38494C60.0293 4.38494 61.3155 4.51348 62.4583 4.76318C63.6011 5.01289 64.6152 5.30732 65.4854 5.6397C66.3555 5.97207 67.0896 6.275 67.6797 6.55472C68.4666 6.95561 69.0266 7.15209 69.3673 7.15209C69.4807 7.15209 69.5714 7.06885 69.6173 6.88766C69.6706 6.71383 69.7006 6.54 69.7006 6.38145C69.7006 6.24556 69.7687 6.16969 69.92 6.1544C70.0487 6.1544 70.1241 6.23027 70.1394 6.38145V11.7408C70.1093 11.8846 70.0487 11.9599 69.9654 11.9599C69.8593 11.9599 69.7687 11.8993 69.7006 11.7861C69.3599 11.3252 68.8605 10.7431 68.2024 10.0325C67.5443 9.32186 66.7342 8.61125 65.7807 7.89328C64.8346 7.18266 63.7525 6.57793 62.5496 6.07909C61.3461 5.58761 60.0293 5.33847 58.6144 5.33847C56.2607 5.33847 54.1571 6.04908 52.2955 7.47767C50.4339 8.89889 48.9578 10.7884 47.8835 13.132C46.8014 15.483 46.264 18.0604 46.264 20.8649C46.264 22.9588 46.5593 24.9395 47.1648 26.8063C47.7628 28.6732 48.6023 30.3288 49.6998 31.7574C50.7973 33.1939 52.0914 34.3202 53.5896 35.1367C55.0879 35.9532 56.738 36.3688 58.5237 36.3688C59.9613 36.3688 61.2781 36.1191 62.4816 35.6355C63.685 35.144 64.7592 34.5546 65.7053 33.8513C66.6514 33.1486 67.4536 32.4528 68.1117 31.7501C68.7704 31.0468 69.2698 30.45 69.6179 29.9659C69.9659 29.4744 70.1399 29.2326 70.1399 29.2326V33.9952C70.1399 33.9952 69.9053 34.169 69.4285 34.5014C68.9592 34.8417 68.2404 35.2273 67.279 35.6582C66.3181 36.0811 65.1147 36.4667 63.6538 36.807C62.201 37.1473 60.4907 37.3212 58.5231 37.3212V37.3195ZM88.9345 24.3404L83.6598 9.19163L78.4077 24.3404H88.9345ZM97.2062 36.5409H91.7501C91.6214 36.5409 91.546 36.465 91.5307 36.3218C91.5307 36.1553 91.5835 36.0721 91.6895 36.0721L91.8862 36.0947C92.2722 36.0947 92.4536 35.7544 92.4389 35.0817C92.4389 34.6961 91.3794 31.4307 89.2451 25.2928H78.075L75.4566 32.8672C75.396 33.0716 75.3353 33.2455 75.2826 33.3967C75.1613 33.7217 75.0706 34.0014 75.0099 34.2358C74.9572 34.4776 74.9266 34.742 74.9266 35.037L74.9719 35.657C75.002 35.952 75.1992 36.0953 75.57 36.0953C75.7287 36.0953 75.8273 36.1712 75.8574 36.3223C75.8574 36.4662 75.7814 36.5415 75.6306 36.5415H72.2175C72.0735 36.5415 71.9981 36.4656 71.9981 36.3223C71.9981 36.1559 72.0962 36.0806 72.2855 36.0953C72.6563 36.0953 73.027 35.8609 73.3977 35.392C73.7611 34.9158 74.0638 34.349 74.3059 33.6837L84.2572 4.8685H85.1654L95.102 33.6837C95.352 34.349 95.6621 34.9158 96.0328 35.392C96.4035 35.8609 96.7669 36.0953 97.1376 36.0953C97.319 36.0953 97.4097 36.1712 97.425 36.3223C97.425 36.4662 97.357 36.5415 97.2057 36.5415L97.2062 36.5409ZM112.361 37.3195C109.463 37.3195 106.799 36.5709 104.354 35.0897C101.917 33.6079 99.9652 31.6198 98.497 29.1256C97.0214 26.6235 96.2873 23.8722 96.2873 20.8638C96.2873 17.8328 97.0288 15.0736 98.5123 12.5788C100.003 10.084 101.971 8.09599 104.423 6.61474C106.875 5.12556 109.554 4.38494 112.452 4.38494C113.868 4.38494 115.154 4.51348 116.297 4.76318C117.439 5.01289 118.454 5.30732 119.324 5.6397C120.194 5.97207 120.928 6.275 121.518 6.55472C122.305 6.95561 122.865 7.15209 123.206 7.15209C123.319 7.15209 123.41 7.06885 123.456 6.88766C123.509 6.71383 123.539 6.54 123.539 6.38145C123.539 6.24556 123.607 6.16969 123.758 6.1544C123.887 6.1544 123.962 6.23027 123.978 6.38145V11.7408C123.948 11.8846 123.887 11.9599 123.804 11.9599C123.698 11.9599 123.607 11.8993 123.539 11.7861C123.198 11.3252 122.699 10.7431 122.041 10.0325C121.383 9.32186 120.573 8.61125 119.619 7.89328C118.673 7.18266 117.591 6.57793 116.388 6.07909C115.184 5.58761 113.868 5.33847 112.453 5.33847C110.099 5.33847 107.995 6.04908 106.134 7.47767C104.272 8.89889 102.796 10.7884 101.722 13.132C100.64 15.483 100.102 18.0604 100.102 20.8649C100.102 22.9588 100.398 24.9395 101.003 26.8063C101.601 28.6732 102.441 30.3288 103.538 31.7574C104.636 33.1939 105.93 34.3202 107.428 35.1367C108.926 35.9532 110.576 36.3688 112.362 36.3688C113.8 36.3688 115.116 36.1191 116.32 35.6355C117.523 35.144 118.598 34.5546 119.544 33.8513C120.49 33.1486 121.292 32.4528 121.95 31.7501C122.609 31.0468 123.108 30.45 123.456 29.9659C123.804 29.4744 123.978 29.2326 123.978 29.2326V33.9952C123.978 33.9952 123.744 34.169 123.267 34.5014C122.798 34.8417 122.079 35.2273 121.117 35.6582C120.156 36.0811 118.953 36.4667 117.492 36.807C116.039 37.1473 114.329 37.3212 112.361 37.3212V37.3195ZM141.108 36.5409H135.251C135.122 36.5409 135.046 36.465 135.031 36.3218C135.031 36.1859 135.107 36.11 135.251 36.0947C135.637 36.0947 135.962 35.8909 136.219 35.4747C136.477 35.0665 136.605 34.4697 136.605 33.6832V5.84297H133.215C131.739 5.84297 130.438 6.11476 129.31 6.65154C128.19 7.19569 127.539 7.85364 127.357 8.63956C127.342 8.66221 127.342 8.69279 127.342 8.7228C127.312 8.79867 127.281 8.85869 127.259 8.90399C127.236 8.94929 127.183 8.97194 127.092 8.97194C126.933 8.97194 126.85 8.88134 126.85 8.69958L127.539 4.8668H148.819L149.508 8.69958C149.508 8.88077 149.424 8.97194 149.266 8.97194C149.175 8.97194 149.122 8.94929 149.099 8.90399C149.076 8.85869 149.054 8.79811 149.023 8.7228C149.023 8.69279 149.016 8.66221 149 8.63956C148.804 7.85364 148.153 7.19569 147.04 6.65154C145.92 6.11476 144.626 5.84297 143.143 5.84297H139.753V33.6832C139.753 34.3332 139.866 34.9 140.101 35.3762C140.328 35.8603 140.6 36.0942 140.925 36.0942H141.107C141.236 36.0942 141.311 36.17 141.326 36.3212C141.326 36.4497 141.25 36.5251 141.107 36.5403L141.108 36.5409ZM164.05 37.1836C161.712 37.1836 159.722 36.7527 158.064 35.8982C156.407 35.0444 155.143 33.8949 154.258 32.4511C153.38 31.0151 152.941 29.4274 152.941 27.6812V7.74776C152.941 6.93919 152.812 6.34182 152.563 5.95622C152.313 5.57062 151.995 5.3815 151.609 5.3815C151.549 5.3815 151.496 5.35149 151.443 5.30562C151.389 5.2524 151.367 5.19238 151.367 5.13915C151.367 5.06328 151.389 5.01062 151.443 4.97268C151.495 4.93475 151.549 4.9121 151.609 4.9121H157.467C157.535 4.9121 157.595 4.93475 157.641 4.97268C157.686 5.01062 157.709 5.06328 157.709 5.13915C157.709 5.19238 157.686 5.2524 157.641 5.30562C157.595 5.35092 157.535 5.3815 157.467 5.3815C157.096 5.3815 156.778 5.57062 156.513 5.95622C156.248 6.34182 156.112 6.93919 156.112 7.74776V27.6812C156.157 29.2609 156.528 30.6895 157.217 31.9596C157.913 33.2296 158.935 34.2426 160.266 34.9985C161.606 35.7618 163.233 36.14 165.155 36.14C167.017 36.14 168.621 35.7391 169.968 34.9379C171.315 34.1288 172.352 33.0858 173.086 31.801C173.813 30.5163 174.184 29.1403 174.184 27.6812V7.74776C174.184 6.93919 174.055 6.34182 173.79 5.95622C173.533 5.57062 173.215 5.3815 172.829 5.3815C172.769 5.3815 172.716 5.35149 172.663 5.30562C172.61 5.2524 172.587 5.19238 172.587 5.13915C172.587 5.06328 172.609 5.01062 172.663 4.97268C172.716 4.93475 172.769 4.9121 172.829 4.9121H176.462C176.538 4.9121 176.598 4.93475 176.643 4.97268C176.689 5.01062 176.711 5.06328 176.711 5.13915C176.711 5.23711 176.673 5.30562 176.598 5.33563C176.523 5.36564 176.431 5.38093 176.311 5.38093C175.985 5.38093 175.705 5.61535 175.478 6.07626C175.25 6.54509 175.137 7.0966 175.137 7.74662V27.68C175.137 29.4263 174.713 31.0134 173.881 32.4499C173.048 33.8938 171.807 35.0427 170.158 35.8971C168.508 36.7515 166.473 37.1824 164.051 37.1824L164.05 37.1836ZM188.604 37.4254C187.484 37.4254 186.387 37.3121 185.328 37.085C184.261 36.8506 183.299 36.5936 182.452 36.3065C181.604 36.0194 180.916 35.7623 180.378 35.5432C179.894 35.3541 179.606 35.2561 179.516 35.2561C179.38 35.2561 179.274 35.3394 179.198 35.4979C179.114 35.6644 179.069 35.8003 179.069 35.9215C179.069 36.0273 179.054 36.1179 179.031 36.2085C179.001 36.2991 178.933 36.3444 178.827 36.3444C178.766 36.3444 178.713 36.3144 178.653 36.2612C178.592 36.2159 178.562 36.1627 178.562 36.1174V29.8509C178.577 29.7904 178.607 29.7524 178.653 29.7224C178.698 29.6924 178.736 29.6771 178.781 29.6771C178.903 29.6771 179.001 29.7377 179.069 29.8509C179.145 30.0174 179.326 30.3345 179.606 30.8186C179.886 31.2948 180.28 31.8469 180.779 32.4743C181.279 33.1017 181.907 33.7217 182.656 34.3264C183.398 34.9311 184.276 35.43 185.282 35.8309C186.288 36.2317 187.423 36.4282 188.695 36.4282C190.587 36.4282 192.199 36.1106 193.531 35.4758C194.855 34.8411 195.877 33.994 196.573 32.9284C197.277 31.8701 197.633 30.6986 197.633 29.4133C197.633 28.5062 197.391 27.7123 196.921 27.0096C196.445 26.3064 195.816 25.6643 195.022 25.0822C194.235 24.5001 193.334 23.956 192.32 23.4571C191.306 22.9509 190.254 22.4521 189.157 21.9453C187.946 21.4164 186.765 20.8491 185.6 20.2523C184.442 19.6549 183.39 18.9975 182.451 18.2716C181.513 17.5457 180.764 16.7298 180.189 15.8148C179.622 14.9003 179.342 13.8341 179.342 12.6247C179.342 10.9237 179.834 9.44247 180.832 8.17979C181.831 6.91767 183.148 5.94206 184.768 5.23938C186.395 4.53669 188.158 4.18846 190.05 4.18846C191.23 4.18846 192.35 4.33964 193.402 4.64937C194.462 4.95909 195.332 5.2541 196.013 5.53381C196.573 5.7603 196.937 5.86619 197.095 5.86619C197.171 5.86619 197.239 5.82825 197.307 5.74502C197.375 5.66914 197.429 5.57118 197.474 5.45794C197.519 5.35206 197.542 5.25353 197.542 5.18558C197.542 4.91323 197.618 4.77734 197.761 4.76261C197.837 4.76261 197.905 4.78526 197.965 4.83056C198.019 4.87586 198.049 4.92852 198.049 5.00439V10.4775C198.033 10.5381 198.003 10.5755 197.951 10.5981C197.897 10.6208 197.845 10.6281 197.784 10.6281C197.739 10.6281 197.693 10.6208 197.648 10.5981C197.61 10.5755 197.572 10.5376 197.542 10.4775C197.527 10.4322 197.497 10.379 197.451 10.3184C197.323 10.0387 197.073 9.6231 196.71 9.07895C196.346 8.53481 195.862 7.96009 195.249 7.35536C194.636 6.75063 193.872 6.22914 192.971 5.79031C192.071 5.35206 191.011 5.14029 189.778 5.14029C188.408 5.14029 187.137 5.38999 185.978 5.88884C184.82 6.39504 183.89 7.10566 183.193 8.0354C182.505 8.9725 182.157 10.0687 182.157 11.3388C182.157 12.3591 182.407 13.2588 182.921 14.0374C183.428 14.8233 184.109 15.5266 184.956 16.1539C185.811 16.7813 186.773 17.3634 187.855 17.8928C188.93 18.4217 190.049 18.9511 191.2 19.4652C192.411 19.9947 193.599 20.5535 194.756 21.1356C195.915 21.725 196.966 22.3677 197.905 23.0783C198.843 23.781 199.592 24.5901 200.16 25.4899C200.72 26.3896 201 27.44 201 28.6347C201 30.3051 200.463 31.8022 199.388 33.1322C198.321 34.4629 196.853 35.5058 194.992 36.277C193.13 37.0403 191.003 37.4259 188.604 37.4259V37.4254Z" stroke="#303030" stroke-width="0.380922" mask="url(#path-20-outside-1_6_4)"/>
<mask id="path-21-outside-2_6_4" maskUnits="userSpaceOnUse" x="44.2352" y="41.21" width="155" height="11" fill="black">
<rect fill="white" x="44.2352" y="41.21" width="155" height="11"/>
<path d="M47.7856 48.9503L47.9126 49.7713C47.6518 49.8257 47.4171 49.854 47.2125 49.854C46.8757 49.854 46.6144 49.8013 46.4274 49.6938C46.242 49.5862 46.1116 49.4469 46.0356 49.2725C45.9597 49.0981 45.9228 48.7317 45.9228 48.1729V45.0116H45.2352V44.2925H45.9228V42.9359L46.8542 42.377V44.2925H47.7856V45.0116H46.8542V48.2255C46.8542 48.4917 46.8701 48.6627 46.9035 48.7385C46.9353 48.8144 46.988 48.8744 47.0623 48.9203C47.1365 48.9645 47.2419 48.9871 47.3797 48.9871C47.4817 48.9871 47.6178 48.9747 47.7856 48.9503ZM58.8577 49.7804V48.9645C58.4308 49.5862 57.852 49.8965 57.1202 49.8965C56.7977 49.8965 56.4955 49.8348 56.2155 49.7113C55.9349 49.5862 55.7268 49.431 55.5908 49.2442C55.4547 49.0556 55.3595 48.8263 55.3051 48.5551C55.2682 48.3716 55.2484 48.0829 55.2484 47.6882V44.2925H56.1798V47.3286C56.1798 47.8133 56.199 48.1412 56.2365 48.3082C56.2948 48.5534 56.4179 48.7436 56.6089 48.8829C56.7977 49.0222 57.0306 49.0924 57.309 49.0924C57.5879 49.0924 57.8486 49.0222 58.0924 48.879C58.3356 48.7363 58.5085 48.5409 58.6111 48.2958C58.7114 48.0506 58.763 47.6933 58.763 47.2262V44.2925H59.6944V49.7798H58.8582L58.8577 49.7804ZM69.7427 48.9503L69.8696 49.7713C69.6089 49.8257 69.3742 49.854 69.1696 49.854C68.8328 49.854 68.5715 49.8013 68.3845 49.6938C68.1991 49.5862 68.0687 49.4469 67.9927 49.2725C67.9168 49.0981 67.8799 48.7317 67.8799 48.1729V45.0116H67.1923V44.2925H67.8799V42.9359L68.8113 42.377V44.2925H69.7427V45.0116H68.8113V48.2255C68.8113 48.4917 68.8272 48.6627 68.8606 48.7385C68.8924 48.8144 68.9451 48.8744 69.0193 48.9203C69.0936 48.9645 69.199 48.9871 69.3368 48.9871C69.4388 48.9871 69.5749 48.9747 69.7427 48.9503ZM76.8773 47.0365C76.8773 46.0235 77.1596 45.2727 77.7259 44.7846C78.1969 44.3792 78.7735 44.1765 79.4531 44.1765C80.2065 44.1765 80.8238 44.4233 81.3034 44.9165C81.7813 45.408 82.0216 46.0903 82.0216 46.9589C82.0216 47.6638 81.9156 48.217 81.7042 48.6208C81.4927 49.0245 81.1838 49.3376 80.7779 49.5618C80.3737 49.7855 79.931 49.8965 79.4531 49.8965C78.6839 49.8965 78.0632 49.6513 77.5887 49.1598C77.1142 48.6683 76.8778 47.96 76.8778 47.0365H76.8773ZM77.8296 47.0382C77.8296 47.7397 77.9832 48.2646 78.2899 48.6117C78.5989 48.9605 78.9849 49.1349 79.4526 49.1349C79.9146 49.1349 80.2995 48.9605 80.6078 48.61C80.9151 48.2595 81.0681 47.7256 81.0681 47.0082C81.0681 46.3315 80.9128 45.8185 80.6044 45.4714C80.2961 45.1226 79.9112 44.9482 79.4526 44.9482C78.9849 44.9482 78.5989 45.1209 78.2899 45.468C77.9832 45.8151 77.8296 46.3383 77.8296 47.0382ZM89.667 49.7798V44.2925H90.5031V45.1328C90.7168 44.7433 90.9141 44.4862 91.0961 44.3627C91.278 44.2376 91.477 44.1759 91.6941 44.1759C92.0081 44.1759 92.3273 44.2744 92.6521 44.4703L92.3205 45.3287C92.0949 45.2019 91.8687 45.1385 91.6431 45.1385C91.4401 45.1385 91.2587 45.2002 91.0978 45.3219C90.9373 45.4437 90.8228 45.6124 90.7537 45.8293C90.6494 46.1588 90.5983 46.5201 90.5983 46.913V49.7798H89.667ZM99.7669 43.2671V42.21H100.698V43.2671H99.7669ZM99.7669 49.7798V44.2925H100.698V49.7798H99.7669ZM108.683 49.7798V44.2925H109.519V45.0711C109.921 44.4737 110.503 44.1759 111.264 44.1759C111.596 44.1759 111.899 44.2359 112.176 44.3537C112.453 44.4715 112.661 44.6283 112.799 44.8203C112.936 45.0122 113.033 45.2415 113.088 45.506C113.121 45.6787 113.139 45.9799 113.139 46.4097V49.7787H112.207V46.4448C112.207 46.066 112.172 45.7823 112.1 45.5954C112.027 45.4086 111.898 45.2591 111.715 45.1458C111.532 45.0349 111.315 44.9788 111.068 44.9788C110.673 44.9788 110.332 45.1039 110.045 45.3559C109.757 45.6062 109.615 46.0835 109.615 46.7851V49.7787H108.683V49.7798ZM120.964 50.2345L121.863 50.3613C121.9 50.6399 122.006 50.8421 122.179 50.9712C122.41 51.1422 122.726 51.2282 123.126 51.2282C123.557 51.2282 123.89 51.1416 124.125 50.9712C124.359 50.8002 124.518 50.559 124.601 50.2504C124.648 50.0618 124.671 49.6655 124.668 49.0607C124.26 49.5403 123.754 49.7798 123.147 49.7798C122.392 49.7798 121.807 49.5086 121.394 48.9639C120.98 48.4215 120.773 47.7692 120.773 47.0099C120.773 46.4867 120.869 46.0037 121.057 45.5614C121.246 45.1192 121.521 44.7789 121.881 44.5377C122.241 44.2965 122.664 44.1765 123.151 44.1765C123.799 44.1765 124.333 44.4409 124.753 44.9692V44.2925H125.611V49.0307C125.611 49.8851 125.524 50.4899 125.35 50.8455C125.177 51.2016 124.9 51.483 124.524 51.6897C124.147 51.8958 123.683 52 123.133 52C122.478 52 121.951 51.8539 121.548 51.5595C121.144 51.2667 120.95 50.8245 120.964 50.2345H120.964ZM121.726 46.943C121.726 47.6604 121.869 48.1836 122.154 48.5132C122.442 48.8427 122.8 49.0081 123.23 49.0081C123.659 49.0081 124.017 48.8444 124.308 48.5166C124.597 48.1887 124.743 47.674 124.743 46.9731C124.743 46.3038 124.592 45.7981 124.294 45.4578C123.996 45.1181 123.636 44.9488 123.217 44.9488C122.802 44.9488 122.451 45.1164 122.16 45.451C121.87 45.7857 121.726 46.2828 121.726 46.9436V46.943ZM140.115 47.7714L141.025 47.8983C140.925 48.5239 140.67 49.012 140.259 49.3659C139.848 49.7204 139.342 49.8965 138.744 49.8965C137.994 49.8965 137.391 49.6513 136.936 49.1615C136.479 48.6717 136.252 47.9702 136.252 47.0574C136.252 46.4651 136.35 45.9493 136.546 45.5048C136.742 45.0626 137.04 44.7297 137.443 44.5094C137.843 44.2874 138.279 44.1765 138.752 44.1765C139.346 44.1765 139.835 44.3265 140.212 44.6277C140.592 44.929 140.835 45.357 140.941 45.9102L140.041 46.0478C139.954 45.6798 139.803 45.4029 139.583 45.2161C139.364 45.0309 139.099 44.9375 138.789 44.9375C138.32 44.9375 137.939 45.1051 137.644 45.4397C137.351 45.776 137.205 46.3049 137.205 47.0308C137.205 47.7675 137.346 48.3014 137.628 48.6344C137.912 48.9673 138.281 49.1349 138.734 49.1349C139.101 49.1349 139.406 49.0239 139.649 48.8003C139.895 48.5783 140.05 48.2346 140.115 47.7714ZM152.131 48.0041L153.094 48.131C152.944 48.6893 152.664 49.1247 152.254 49.4333C151.845 49.7413 151.323 49.8965 150.686 49.8965C149.885 49.8965 149.251 49.6496 148.781 49.1564C148.312 48.6649 148.077 47.9724 148.077 47.0823C148.077 46.1628 148.314 45.4471 148.788 44.9397C149.262 44.4307 149.878 44.177 150.635 44.177C151.367 44.177 151.965 44.4256 152.429 44.9244C152.893 45.4233 153.126 46.1243 153.126 47.0285C153.126 47.0829 153.124 47.1661 153.121 47.2754H149.03C149.065 47.8762 149.235 48.3382 149.541 48.657C149.846 48.9758 150.23 49.1366 150.686 49.1366C151.027 49.1366 151.318 49.0466 151.558 48.8671C151.799 48.687 151.99 48.3999 152.131 48.0053V48.0041ZM149.083 46.5133H152.142C152.101 46.0518 151.983 45.7064 151.791 45.4754C151.496 45.1175 151.112 44.938 150.641 44.938C150.214 44.938 149.855 45.0807 149.565 45.3661C149.275 45.6515 149.115 46.0343 149.083 46.5133H149.083ZM160.836 49.7804V44.2931H161.672V45.0717C162.074 44.4743 162.656 44.1765 163.417 44.1765C163.748 44.1765 164.051 44.2365 164.329 44.3543C164.606 44.472 164.814 44.6289 164.951 44.8208C165.089 45.0128 165.186 45.2421 165.24 45.5065C165.274 45.6792 165.291 45.9805 165.291 46.4102V49.7793H164.36V46.4453C164.36 46.0665 164.325 45.7828 164.252 45.596C164.18 45.4091 164.051 45.2597 163.868 45.1464C163.684 45.0354 163.468 44.9794 163.22 44.9794C162.825 44.9794 162.485 45.1045 162.197 45.3565C161.91 45.6067 161.767 46.0841 161.767 46.7856V49.7793H160.836V49.7804ZM175.309 48.9503L175.436 49.7713C175.175 49.8257 174.94 49.854 174.736 49.854C174.399 49.854 174.138 49.8013 173.951 49.6938C173.765 49.5862 173.635 49.4469 173.559 49.2725C173.483 49.0981 173.446 48.7317 173.446 48.1729V45.0116H172.759V44.2925H173.446V42.9359L174.378 42.377V44.2925H175.309V45.0116H174.378V48.2255C174.378 48.4917 174.393 48.6627 174.427 48.7385C174.459 48.8144 174.511 48.8744 174.586 48.9203C174.66 48.9645 174.765 48.9871 174.903 48.9871C175.005 48.9871 175.141 48.9747 175.309 48.9503ZM186.54 48.0041L187.503 48.131C187.353 48.6893 187.073 49.1247 186.663 49.4333C186.254 49.7413 185.732 49.8965 185.095 49.8965C184.294 49.8965 183.659 49.6496 183.19 49.1564C182.721 48.6649 182.486 47.9724 182.486 47.0823C182.486 46.1628 182.722 45.4471 183.197 44.9397C183.671 44.4307 184.287 44.177 185.044 44.177C185.776 44.177 186.374 44.4256 186.838 44.9244C187.302 45.4233 187.535 46.1243 187.535 47.0285C187.535 47.0829 187.533 47.1661 187.53 47.2754H183.439C183.474 47.8762 183.644 48.3382 183.95 48.657C184.255 48.9758 184.638 49.1366 185.095 49.1366C185.435 49.1366 185.727 49.0466 185.967 48.8671C186.208 48.687 186.399 48.3999 186.54 48.0053V48.0041ZM183.492 46.5133H186.551C186.51 46.0518 186.392 45.7064 186.2 45.4754C185.905 45.1175 185.521 44.938 185.049 44.938C184.623 44.938 184.264 45.0807 183.974 45.3661C183.684 45.6515 183.523 46.0343 183.492 46.5133H183.492ZM195.234 49.7804V44.2931H196.07V45.1334C196.284 44.7438 196.481 44.4868 196.663 44.3633C196.845 44.2382 197.044 44.1765 197.261 44.1765C197.575 44.1765 197.894 44.275 198.219 44.4709L197.887 45.3293C197.662 45.2025 197.436 45.139 197.21 45.139C197.007 45.139 196.826 45.2008 196.665 45.3225C196.504 45.4442 196.39 45.613 196.321 45.8298C196.216 46.1594 196.165 46.5206 196.165 46.9136V49.7804H195.234Z"/>
</mask>
<path d="M47.7856 48.9503L47.9126 49.7713C47.6518 49.8257 47.4171 49.854 47.2125 49.854C46.8757 49.854 46.6144 49.8013 46.4274 49.6938C46.242 49.5862 46.1116 49.4469 46.0356 49.2725C45.9597 49.0981 45.9228 48.7317 45.9228 48.1729V45.0116H45.2352V44.2925H45.9228V42.9359L46.8542 42.377V44.2925H47.7856V45.0116H46.8542V48.2255C46.8542 48.4917 46.8701 48.6627 46.9035 48.7385C46.9353 48.8144 46.988 48.8744 47.0623 48.9203C47.1365 48.9645 47.2419 48.9871 47.3797 48.9871C47.4817 48.9871 47.6178 48.9747 47.7856 48.9503ZM58.8577 49.7804V48.9645C58.4308 49.5862 57.852 49.8965 57.1202 49.8965C56.7977 49.8965 56.4955 49.8348 56.2155 49.7113C55.9349 49.5862 55.7268 49.431 55.5908 49.2442C55.4547 49.0556 55.3595 48.8263 55.3051 48.5551C55.2682 48.3716 55.2484 48.0829 55.2484 47.6882V44.2925H56.1798V47.3286C56.1798 47.8133 56.199 48.1412 56.2365 48.3082C56.2948 48.5534 56.4179 48.7436 56.6089 48.8829C56.7977 49.0222 57.0306 49.0924 57.309 49.0924C57.5879 49.0924 57.8486 49.0222 58.0924 48.879C58.3356 48.7363 58.5085 48.5409 58.6111 48.2958C58.7114 48.0506 58.763 47.6933 58.763 47.2262V44.2925H59.6944V49.7798H58.8582L58.8577 49.7804ZM69.7427 48.9503L69.8696 49.7713C69.6089 49.8257 69.3742 49.854 69.1696 49.854C68.8328 49.854 68.5715 49.8013 68.3845 49.6938C68.1991 49.5862 68.0687 49.4469 67.9927 49.2725C67.9168 49.0981 67.8799 48.7317 67.8799 48.1729V45.0116H67.1923V44.2925H67.8799V42.9359L68.8113 42.377V44.2925H69.7427V45.0116H68.8113V48.2255C68.8113 48.4917 68.8272 48.6627 68.8606 48.7385C68.8924 48.8144 68.9451 48.8744 69.0193 48.9203C69.0936 48.9645 69.199 48.9871 69.3368 48.9871C69.4388 48.9871 69.5749 48.9747 69.7427 48.9503ZM76.8773 47.0365C76.8773 46.0235 77.1596 45.2727 77.7259 44.7846C78.1969 44.3792 78.7735 44.1765 79.4531 44.1765C80.2065 44.1765 80.8238 44.4233 81.3034 44.9165C81.7813 45.408 82.0216 46.0903 82.0216 46.9589C82.0216 47.6638 81.9156 48.217 81.7042 48.6208C81.4927 49.0245 81.1838 49.3376 80.7779 49.5618C80.3737 49.7855 79.931 49.8965 79.4531 49.8965C78.6839 49.8965 78.0632 49.6513 77.5887 49.1598C77.1142 48.6683 76.8778 47.96 76.8778 47.0365H76.8773ZM77.8296 47.0382C77.8296 47.7397 77.9832 48.2646 78.2899 48.6117C78.5989 48.9605 78.9849 49.1349 79.4526 49.1349C79.9146 49.1349 80.2995 48.9605 80.6078 48.61C80.9151 48.2595 81.0681 47.7256 81.0681 47.0082C81.0681 46.3315 80.9128 45.8185 80.6044 45.4714C80.2961 45.1226 79.9112 44.9482 79.4526 44.9482C78.9849 44.9482 78.5989 45.1209 78.2899 45.468C77.9832 45.8151 77.8296 46.3383 77.8296 47.0382ZM89.667 49.7798V44.2925H90.5031V45.1328C90.7168 44.7433 90.9141 44.4862 91.0961 44.3627C91.278 44.2376 91.477 44.1759 91.6941 44.1759C92.0081 44.1759 92.3273 44.2744 92.6521 44.4703L92.3205 45.3287C92.0949 45.2019 91.8687 45.1385 91.6431 45.1385C91.4401 45.1385 91.2587 45.2002 91.0978 45.3219C90.9373 45.4437 90.8228 45.6124 90.7537 45.8293C90.6494 46.1588 90.5983 46.5201 90.5983 46.913V49.7798H89.667ZM99.7669 43.2671V42.21H100.698V43.2671H99.7669ZM99.7669 49.7798V44.2925H100.698V49.7798H99.7669ZM108.683 49.7798V44.2925H109.519V45.0711C109.921 44.4737 110.503 44.1759 111.264 44.1759C111.596 44.1759 111.899 44.2359 112.176 44.3537C112.453 44.4715 112.661 44.6283 112.799 44.8203C112.936 45.0122 113.033 45.2415 113.088 45.506C113.121 45.6787 113.139 45.9799 113.139 46.4097V49.7787H112.207V46.4448C112.207 46.066 112.172 45.7823 112.1 45.5954C112.027 45.4086 111.898 45.2591 111.715 45.1458C111.532 45.0349 111.315 44.9788 111.068 44.9788C110.673 44.9788 110.332 45.1039 110.045 45.3559C109.757 45.6062 109.615 46.0835 109.615 46.7851V49.7787H108.683V49.7798ZM120.964 50.2345L121.863 50.3613C121.9 50.6399 122.006 50.8421 122.179 50.9712C122.41 51.1422 122.726 51.2282 123.126 51.2282C123.557 51.2282 123.89 51.1416 124.125 50.9712C124.359 50.8002 124.518 50.559 124.601 50.2504C124.648 50.0618 124.671 49.6655 124.668 49.0607C124.26 49.5403 123.754 49.7798 123.147 49.7798C122.392 49.7798 121.807 49.5086 121.394 48.9639C120.98 48.4215 120.773 47.7692 120.773 47.0099C120.773 46.4867 120.869 46.0037 121.057 45.5614C121.246 45.1192 121.521 44.7789 121.881 44.5377C122.241 44.2965 122.664 44.1765 123.151 44.1765C123.799 44.1765 124.333 44.4409 124.753 44.9692V44.2925H125.611V49.0307C125.611 49.8851 125.524 50.4899 125.35 50.8455C125.177 51.2016 124.9 51.483 124.524 51.6897C124.147 51.8958 123.683 52 123.133 52C122.478 52 121.951 51.8539 121.548 51.5595C121.144 51.2667 120.95 50.8245 120.964 50.2345H120.964ZM121.726 46.943C121.726 47.6604 121.869 48.1836 122.154 48.5132C122.442 48.8427 122.8 49.0081 123.23 49.0081C123.659 49.0081 124.017 48.8444 124.308 48.5166C124.597 48.1887 124.743 47.674 124.743 46.9731C124.743 46.3038 124.592 45.7981 124.294 45.4578C123.996 45.1181 123.636 44.9488 123.217 44.9488C122.802 44.9488 122.451 45.1164 122.16 45.451C121.87 45.7857 121.726 46.2828 121.726 46.9436V46.943ZM140.115 47.7714L141.025 47.8983C140.925 48.5239 140.67 49.012 140.259 49.3659C139.848 49.7204 139.342 49.8965 138.744 49.8965C137.994 49.8965 137.391 49.6513 136.936 49.1615C136.479 48.6717 136.252 47.9702 136.252 47.0574C136.252 46.4651 136.35 45.9493 136.546 45.5048C136.742 45.0626 137.04 44.7297 137.443 44.5094C137.843 44.2874 138.279 44.1765 138.752 44.1765C139.346 44.1765 139.835 44.3265 140.212 44.6277C140.592 44.929 140.835 45.357 140.941 45.9102L140.041 46.0478C139.954 45.6798 139.803 45.4029 139.583 45.2161C139.364 45.0309 139.099 44.9375 138.789 44.9375C138.32 44.9375 137.939 45.1051 137.644 45.4397C137.351 45.776 137.205 46.3049 137.205 47.0308C137.205 47.7675 137.346 48.3014 137.628 48.6344C137.912 48.9673 138.281 49.1349 138.734 49.1349C139.101 49.1349 139.406 49.0239 139.649 48.8003C139.895 48.5783 140.05 48.2346 140.115 47.7714ZM152.131 48.0041L153.094 48.131C152.944 48.6893 152.664 49.1247 152.254 49.4333C151.845 49.7413 151.323 49.8965 150.686 49.8965C149.885 49.8965 149.251 49.6496 148.781 49.1564C148.312 48.6649 148.077 47.9724 148.077 47.0823C148.077 46.1628 148.314 45.4471 148.788 44.9397C149.262 44.4307 149.878 44.177 150.635 44.177C151.367 44.177 151.965 44.4256 152.429 44.9244C152.893 45.4233 153.126 46.1243 153.126 47.0285C153.126 47.0829 153.124 47.1661 153.121 47.2754H149.03C149.065 47.8762 149.235 48.3382 149.541 48.657C149.846 48.9758 150.23 49.1366 150.686 49.1366C151.027 49.1366 151.318 49.0466 151.558 48.8671C151.799 48.687 151.99 48.3999 152.131 48.0053V48.0041ZM149.083 46.5133H152.142C152.101 46.0518 151.983 45.7064 151.791 45.4754C151.496 45.1175 151.112 44.938 150.641 44.938C150.214 44.938 149.855 45.0807 149.565 45.3661C149.275 45.6515 149.115 46.0343 149.083 46.5133H149.083ZM160.836 49.7804V44.2931H161.672V45.0717C162.074 44.4743 162.656 44.1765 163.417 44.1765C163.748 44.1765 164.051 44.2365 164.329 44.3543C164.606 44.472 164.814 44.6289 164.951 44.8208C165.089 45.0128 165.186 45.2421 165.24 45.5065C165.274 45.6792 165.291 45.9805 165.291 46.4102V49.7793H164.36V46.4453C164.36 46.0665 164.325 45.7828 164.252 45.596C164.18 45.4091 164.051 45.2597 163.868 45.1464C163.684 45.0354 163.468 44.9794 163.22 44.9794C162.825 44.9794 162.485 45.1045 162.197 45.3565C161.91 45.6067 161.767 46.0841 161.767 46.7856V49.7793H160.836V49.7804ZM175.309 48.9503L175.436 49.7713C175.175 49.8257 174.94 49.854 174.736 49.854C174.399 49.854 174.138 49.8013 173.951 49.6938C173.765 49.5862 173.635 49.4469 173.559 49.2725C173.483 49.0981 173.446 48.7317 173.446 48.1729V45.0116H172.759V44.2925H173.446V42.9359L174.378 42.377V44.2925H175.309V45.0116H174.378V48.2255C174.378 48.4917 174.393 48.6627 174.427 48.7385C174.459 48.8144 174.511 48.8744 174.586 48.9203C174.66 48.9645 174.765 48.9871 174.903 48.9871C175.005 48.9871 175.141 48.9747 175.309 48.9503ZM186.54 48.0041L187.503 48.131C187.353 48.6893 187.073 49.1247 186.663 49.4333C186.254 49.7413 185.732 49.8965 185.095 49.8965C184.294 49.8965 183.659 49.6496 183.19 49.1564C182.721 48.6649 182.486 47.9724 182.486 47.0823C182.486 46.1628 182.722 45.4471 183.197 44.9397C183.671 44.4307 184.287 44.177 185.044 44.177C185.776 44.177 186.374 44.4256 186.838 44.9244C187.302 45.4233 187.535 46.1243 187.535 47.0285C187.535 47.0829 187.533 47.1661 187.53 47.2754H183.439C183.474 47.8762 183.644 48.3382 183.95 48.657C184.255 48.9758 184.638 49.1366 185.095 49.1366C185.435 49.1366 185.727 49.0466 185.967 48.8671C186.208 48.687 186.399 48.3999 186.54 48.0053V48.0041ZM183.492 46.5133H186.551C186.51 46.0518 186.392 45.7064 186.2 45.4754C185.905 45.1175 185.521 44.938 185.049 44.938C184.623 44.938 184.264 45.0807 183.974 45.3661C183.684 45.6515 183.523 46.0343 183.492 46.5133H183.492ZM195.234 49.7804V44.2931H196.07V45.1334C196.284 44.7438 196.481 44.4868 196.663 44.3633C196.845 44.2382 197.044 44.1765 197.261 44.1765C197.575 44.1765 197.894 44.275 198.219 44.4709L197.887 45.3293C197.662 45.2025 197.436 45.139 197.21 45.139C197.007 45.139 196.826 45.2008 196.665 45.3225C196.504 45.4442 196.39 45.613 196.321 45.8298C196.216 46.1594 196.165 46.5206 196.165 46.9136V49.7804H195.234Z" fill="#303030"/>
<path d="M47.7856 48.9503L47.9126 49.7713C47.6518 49.8257 47.4171 49.854 47.2125 49.854C46.8757 49.854 46.6144 49.8013 46.4274 49.6938C46.242 49.5862 46.1116 49.4469 46.0356 49.2725C45.9597 49.0981 45.9228 48.7317 45.9228 48.1729V45.0116H45.2352V44.2925H45.9228V42.9359L46.8542 42.377V44.2925H47.7856V45.0116H46.8542V48.2255C46.8542 48.4917 46.8701 48.6627 46.9035 48.7385C46.9353 48.8144 46.988 48.8744 47.0623 48.9203C47.1365 48.9645 47.2419 48.9871 47.3797 48.9871C47.4817 48.9871 47.6178 48.9747 47.7856 48.9503ZM58.8577 49.7804V48.9645C58.4308 49.5862 57.852 49.8965 57.1202 49.8965C56.7977 49.8965 56.4955 49.8348 56.2155 49.7113C55.9349 49.5862 55.7268 49.431 55.5908 49.2442C55.4547 49.0556 55.3595 48.8263 55.3051 48.5551C55.2682 48.3716 55.2484 48.0829 55.2484 47.6882V44.2925H56.1798V47.3286C56.1798 47.8133 56.199 48.1412 56.2365 48.3082C56.2948 48.5534 56.4179 48.7436 56.6089 48.8829C56.7977 49.0222 57.0306 49.0924 57.309 49.0924C57.5879 49.0924 57.8486 49.0222 58.0924 48.879C58.3356 48.7363 58.5085 48.5409 58.6111 48.2958C58.7114 48.0506 58.763 47.6933 58.763 47.2262V44.2925H59.6944V49.7798H58.8582L58.8577 49.7804ZM69.7427 48.9503L69.8696 49.7713C69.6089 49.8257 69.3742 49.854 69.1696 49.854C68.8328 49.854 68.5715 49.8013 68.3845 49.6938C68.1991 49.5862 68.0687 49.4469 67.9927 49.2725C67.9168 49.0981 67.8799 48.7317 67.8799 48.1729V45.0116H67.1923V44.2925H67.8799V42.9359L68.8113 42.377V44.2925H69.7427V45.0116H68.8113V48.2255C68.8113 48.4917 68.8272 48.6627 68.8606 48.7385C68.8924 48.8144 68.9451 48.8744 69.0193 48.9203C69.0936 48.9645 69.199 48.9871 69.3368 48.9871C69.4388 48.9871 69.5749 48.9747 69.7427 48.9503ZM76.8773 47.0365C76.8773 46.0235 77.1596 45.2727 77.7259 44.7846C78.1969 44.3792 78.7735 44.1765 79.4531 44.1765C80.2065 44.1765 80.8238 44.4233 81.3034 44.9165C81.7813 45.408 82.0216 46.0903 82.0216 46.9589C82.0216 47.6638 81.9156 48.217 81.7042 48.6208C81.4927 49.0245 81.1838 49.3376 80.7779 49.5618C80.3737 49.7855 79.931 49.8965 79.4531 49.8965C78.6839 49.8965 78.0632 49.6513 77.5887 49.1598C77.1142 48.6683 76.8778 47.96 76.8778 47.0365H76.8773ZM77.8296 47.0382C77.8296 47.7397 77.9832 48.2646 78.2899 48.6117C78.5989 48.9605 78.9849 49.1349 79.4526 49.1349C79.9146 49.1349 80.2995 48.9605 80.6078 48.61C80.9151 48.2595 81.0681 47.7256 81.0681 47.0082C81.0681 46.3315 80.9128 45.8185 80.6044 45.4714C80.2961 45.1226 79.9112 44.9482 79.4526 44.9482C78.9849 44.9482 78.5989 45.1209 78.2899 45.468C77.9832 45.8151 77.8296 46.3383 77.8296 47.0382ZM89.667 49.7798V44.2925H90.5031V45.1328C90.7168 44.7433 90.9141 44.4862 91.0961 44.3627C91.278 44.2376 91.477 44.1759 91.6941 44.1759C92.0081 44.1759 92.3273 44.2744 92.6521 44.4703L92.3205 45.3287C92.0949 45.2019 91.8687 45.1385 91.6431 45.1385C91.4401 45.1385 91.2587 45.2002 91.0978 45.3219C90.9373 45.4437 90.8228 45.6124 90.7537 45.8293C90.6494 46.1588 90.5983 46.5201 90.5983 46.913V49.7798H89.667ZM99.7669 43.2671V42.21H100.698V43.2671H99.7669ZM99.7669 49.7798V44.2925H100.698V49.7798H99.7669ZM108.683 49.7798V44.2925H109.519V45.0711C109.921 44.4737 110.503 44.1759 111.264 44.1759C111.596 44.1759 111.899 44.2359 112.176 44.3537C112.453 44.4715 112.661 44.6283 112.799 44.8203C112.936 45.0122 113.033 45.2415 113.088 45.506C113.121 45.6787 113.139 45.9799 113.139 46.4097V49.7787H112.207V46.4448C112.207 46.066 112.172 45.7823 112.1 45.5954C112.027 45.4086 111.898 45.2591 111.715 45.1458C111.532 45.0349 111.315 44.9788 111.068 44.9788C110.673 44.9788 110.332 45.1039 110.045 45.3559C109.757 45.6062 109.615 46.0835 109.615 46.7851V49.7787H108.683V49.7798ZM120.964 50.2345L121.863 50.3613C121.9 50.6399 122.006 50.8421 122.179 50.9712C122.41 51.1422 122.726 51.2282 123.126 51.2282C123.557 51.2282 123.89 51.1416 124.125 50.9712C124.359 50.8002 124.518 50.559 124.601 50.2504C124.648 50.0618 124.671 49.6655 124.668 49.0607C124.26 49.5403 123.754 49.7798 123.147 49.7798C122.392 49.7798 121.807 49.5086 121.394 48.9639C120.98 48.4215 120.773 47.7692 120.773 47.0099C120.773 46.4867 120.869 46.0037 121.057 45.5614C121.246 45.1192 121.521 44.7789 121.881 44.5377C122.241 44.2965 122.664 44.1765 123.151 44.1765C123.799 44.1765 124.333 44.4409 124.753 44.9692V44.2925H125.611V49.0307C125.611 49.8851 125.524 50.4899 125.35 50.8455C125.177 51.2016 124.9 51.483 124.524 51.6897C124.147 51.8958 123.683 52 123.133 52C122.478 52 121.951 51.8539 121.548 51.5595C121.144 51.2667 120.95 50.8245 120.964 50.2345H120.964ZM121.726 46.943C121.726 47.6604 121.869 48.1836 122.154 48.5132C122.442 48.8427 122.8 49.0081 123.23 49.0081C123.659 49.0081 124.017 48.8444 124.308 48.5166C124.597 48.1887 124.743 47.674 124.743 46.9731C124.743 46.3038 124.592 45.7981 124.294 45.4578C123.996 45.1181 123.636 44.9488 123.217 44.9488C122.802 44.9488 122.451 45.1164 122.16 45.451C121.87 45.7857 121.726 46.2828 121.726 46.9436V46.943ZM140.115 47.7714L141.025 47.8983C140.925 48.5239 140.67 49.012 140.259 49.3659C139.848 49.7204 139.342 49.8965 138.744 49.8965C137.994 49.8965 137.391 49.6513 136.936 49.1615C136.479 48.6717 136.252 47.9702 136.252 47.0574C136.252 46.4651 136.35 45.9493 136.546 45.5048C136.742 45.0626 137.04 44.7297 137.443 44.5094C137.843 44.2874 138.279 44.1765 138.752 44.1765C139.346 44.1765 139.835 44.3265 140.212 44.6277C140.592 44.929 140.835 45.357 140.941 45.9102L140.041 46.0478C139.954 45.6798 139.803 45.4029 139.583 45.2161C139.364 45.0309 139.099 44.9375 138.789 44.9375C138.32 44.9375 137.939 45.1051 137.644 45.4397C137.351 45.776 137.205 46.3049 137.205 47.0308C137.205 47.7675 137.346 48.3014 137.628 48.6344C137.912 48.9673 138.281 49.1349 138.734 49.1349C139.101 49.1349 139.406 49.0239 139.649 48.8003C139.895 48.5783 140.05 48.2346 140.115 47.7714ZM152.131 48.0041L153.094 48.131C152.944 48.6893 152.664 49.1247 152.254 49.4333C151.845 49.7413 151.323 49.8965 150.686 49.8965C149.885 49.8965 149.251 49.6496 148.781 49.1564C148.312 48.6649 148.077 47.9724 148.077 47.0823C148.077 46.1628 148.314 45.4471 148.788 44.9397C149.262 44.4307 149.878 44.177 150.635 44.177C151.367 44.177 151.965 44.4256 152.429 44.9244C152.893 45.4233 153.126 46.1243 153.126 47.0285C153.126 47.0829 153.124 47.1661 153.121 47.2754H149.03C149.065 47.8762 149.235 48.3382 149.541 48.657C149.846 48.9758 150.23 49.1366 150.686 49.1366C151.027 49.1366 151.318 49.0466 151.558 48.8671C151.799 48.687 151.99 48.3999 152.131 48.0053V48.0041ZM149.083 46.5133H152.142C152.101 46.0518 151.983 45.7064 151.791 45.4754C151.496 45.1175 151.112 44.938 150.641 44.938C150.214 44.938 149.855 45.0807 149.565 45.3661C149.275 45.6515 149.115 46.0343 149.083 46.5133H149.083ZM160.836 49.7804V44.2931H161.672V45.0717C162.074 44.4743 162.656 44.1765 163.417 44.1765C163.748 44.1765 164.051 44.2365 164.329 44.3543C164.606 44.472 164.814 44.6289 164.951 44.8208C165.089 45.0128 165.186 45.2421 165.24 45.5065C165.274 45.6792 165.291 45.9805 165.291 46.4102V49.7793H164.36V46.4453C164.36 46.0665 164.325 45.7828 164.252 45.596C164.18 45.4091 164.051 45.2597 163.868 45.1464C163.684 45.0354 163.468 44.9794 163.22 44.9794C162.825 44.9794 162.485 45.1045 162.197 45.3565C161.91 45.6067 161.767 46.0841 161.767 46.7856V49.7793H160.836V49.7804ZM175.309 48.9503L175.436 49.7713C175.175 49.8257 174.94 49.854 174.736 49.854C174.399 49.854 174.138 49.8013 173.951 49.6938C173.765 49.5862 173.635 49.4469 173.559 49.2725C173.483 49.0981 173.446 48.7317 173.446 48.1729V45.0116H172.759V44.2925H173.446V42.9359L174.378 42.377V44.2925H175.309V45.0116H174.378V48.2255C174.378 48.4917 174.393 48.6627 174.427 48.7385C174.459 48.8144 174.511 48.8744 174.586 48.9203C174.66 48.9645 174.765 48.9871 174.903 48.9871C175.005 48.9871 175.141 48.9747 175.309 48.9503ZM186.54 48.0041L187.503 48.131C187.353 48.6893 187.073 49.1247 186.663 49.4333C186.254 49.7413 185.732 49.8965 185.095 49.8965C184.294 49.8965 183.659 49.6496 183.19 49.1564C182.721 48.6649 182.486 47.9724 182.486 47.0823C182.486 46.1628 182.722 45.4471 183.197 44.9397C183.671 44.4307 184.287 44.177 185.044 44.177C185.776 44.177 186.374 44.4256 186.838 44.9244C187.302 45.4233 187.535 46.1243 187.535 47.0285C187.535 47.0829 187.533 47.1661 187.53 47.2754H183.439C183.474 47.8762 183.644 48.3382 183.95 48.657C184.255 48.9758 184.638 49.1366 185.095 49.1366C185.435 49.1366 185.727 49.0466 185.967 48.8671C186.208 48.687 186.399 48.3999 186.54 48.0053V48.0041ZM183.492 46.5133H186.551C186.51 46.0518 186.392 45.7064 186.2 45.4754C185.905 45.1175 185.521 44.938 185.049 44.938C184.623 44.938 184.264 45.0807 183.974 45.3661C183.684 45.6515 183.523 46.0343 183.492 46.5133H183.492ZM195.234 49.7804V44.2931H196.07V45.1334C196.284 44.7438 196.481 44.4868 196.663 44.3633C196.845 44.2382 197.044 44.1765 197.261 44.1765C197.575 44.1765 197.894 44.275 198.219 44.4709L197.887 45.3293C197.662 45.2025 197.436 45.139 197.21 45.139C197.007 45.139 196.826 45.2008 196.665 45.3225C196.504 45.4442 196.39 45.613 196.321 45.8298C196.216 46.1594 196.165 46.5206 196.165 46.9136V49.7804H195.234Z" stroke="#303030" stroke-width="0.380922" mask="url(#path-21-outside-2_6_4)"/>
</svg>
